<svg width="126" height="50" viewBox="0 0 126 50" fill="none" xmlns="http://www.w3.org/2000/svg">
<path fill-rule="evenodd" clip-rule="evenodd" d="M49.0895 21.3373C53.4798 20.3941 52.8923 15.1518 52.7615 13.9846L52.7606 13.9763C52.5437 12.2018 50.458 9.10309 47.6279 9.35067C44.0646 9.66809 43.5445 14.815 43.5445 14.815C43.0618 17.1983 44.6961 22.285 49.0895 21.3373ZM57.2619 12.5113C59.6911 12.5113 61.6547 9.71182 61.6547 6.25365C61.6547 2.79492 59.6911 0 57.2619 0C54.8315 0 52.8628 2.79492 52.8628 6.25365C52.8628 9.71182 54.8309 12.5113 57.2619 12.5113ZM67.7352 12.923C70.9872 13.3489 73.0706 9.8799 73.4874 7.25135C73.9133 4.62621 71.8123 1.57292 69.5154 1.04881C67.2082 0.51844 64.3281 4.21169 64.0686 6.62105C63.7523 9.56815 64.4865 12.5067 67.7352 12.923ZM80.6133 17.3391C80.6133 16.0819 79.5724 12.2921 75.6963 12.2921C71.8123 12.2921 71.299 15.8684 71.299 18.3953C71.299 20.8069 71.5 24.1708 76.3232 24.0663C80.7784 23.9676 80.6625 19.3818 80.6198 17.6908C80.6163 17.553 80.6133 17.4344 80.6133 17.3391ZM75.6963 28.3757C75.6963 28.3757 70.6692 24.4871 67.7352 20.2828C63.7512 14.0836 58.0989 16.6083 56.2091 19.7564C54.7951 22.125 52.7926 23.8386 51.7042 24.77L51.7041 24.77C51.3423 25.0796 51.0816 25.3028 50.977 25.4348C50.9134 25.5128 50.7317 25.6479 50.4732 25.8403C49.0118 26.9279 45.094 29.8432 46.1589 34.5788C47.4149 40.1476 51.8197 40.042 51.8197 40.042C51.8197 40.042 55.066 40.3594 58.8308 39.5173C62.6036 38.6775 65.8494 39.7234 65.8494 39.7234C65.8494 39.7234 74.6498 42.6745 77.0546 36.9961C79.4623 31.3222 75.6963 28.3757 75.6963 28.3757ZM62.0353 27.0312V34.3132C62.0353 34.3132 62.1545 36.1252 64.7098 36.7856H71.2922V27.03H68.4513V34.3535H65.7404C65.7404 34.3535 64.8739 34.2274 64.7109 33.5313V26.988L62.0353 27.0312ZM102.656 22.2499V19.1802H82.4343L82.4082 22.2954L91.1019 22.2954L90.2865 24.1585H82.8931V39.5635L100.456 39.5635C102.292 39.5635 102.129 37.7089 102.129 37.7089V24.159H94.7247L95.3755 22.2516L102.656 22.2516V22.2499H102.656ZM98.7291 36.2745C98.7291 36.2745 98.5162 36.7861 98.2152 36.7861H86.5614V33.1928H98.7308L98.7291 36.2745ZM98.7093 30.2253H86.5597V26.8557H98.7093V30.2253ZM117.824 19.2627H125.759V21.8106L108.277 21.8106V39.5324H105.002V19.186H114.103V17.7085H117.824V19.2627ZM123.619 23.4721V22.2961H120.42V23.4738H113.839V22.3381H110.809V23.4738H108.762L108.803 25.7787H110.809V30.1073H121.878C123.414 30.1073 123.617 28.4867 123.617 28.4867V25.7775L125.959 25.7775V23.4721H123.619ZM120.419 27.3533C120.404 27.3802 120.124 27.8769 119.769 27.8769H113.804V25.7332H120.418V27.3533H120.419ZM114.304 36.2168L109.209 33.2617L109.211 33.2606V30.9529H125.638V32.8154L119.647 36.2554C119.647 36.2554 120.606 36.8647 121.674 37.0242H125.637V39.2899H120.38C120.38 39.2899 118.354 38.8868 117.3 37.9186C117.3 37.9186 114.752 39.2133 113.376 39.4949H108.764V37.2235H112.161C112.161 37.2235 113.901 36.6602 114.304 36.2168ZM116.897 34.7608L119.811 33.2237H114.225L116.897 34.7608ZM37.4336 22.5014H41.8474V18.6128H37.4336V22.5014ZM37.4336 39.4486H41.8474V24.1953H37.4336V39.4486ZM20.8444 24.1843L30.2615 24.2087C34.7384 24.8294 35.3051 28.5789 35.3051 28.5789V39.5059L23.4071 39.5059C20.8444 39.0215 19.9835 37.0823 19.8774 36.7853C19.7666 36.4855 19.5503 35.678 19.7127 34.0336C20.6564 30.5237 23.595 30.2523 23.595 30.2523H31.0673V29.1229C31.0673 27.8759 29.102 27.3909 29.102 27.3909H20.8444V24.1843ZM25.0538 36.4872H31.0673V33.2244H25.1878C25.1878 33.2244 24.3815 33.4419 23.8948 34.3834C23.6768 34.8717 23.8642 35.3549 23.9198 35.4872C23.9766 35.6235 24.2458 36.1613 25.0538 36.4872ZM18.7411 34.0992C18.8711 30.385 15.539 29.1005 15.539 29.1005C18.3595 27.6252 18.0012 23.907 18.0012 23.907C17.6957 18.2167 10.743 18.4824 10.743 18.4824H0V39.6896L12.1303 39.6896C19.2538 39.6612 18.7411 34.0992 18.7411 34.0992ZM11.8867 35.7477V35.7573H4.61997V31.1816L11.8509 31.1816L12.0956 31.231C12.0956 31.231 13.4715 31.4826 13.9701 32.7199C13.9701 32.7199 14.2585 33.8829 13.6356 34.7466C13.6356 34.7466 13.1774 35.5449 11.8867 35.7477ZM13.4272 25.9149C13.4272 25.9149 12.9389 26.8121 11.643 27.0063H4.61997V22.6174H11.613C11.613 22.6174 13.1325 22.5476 13.6356 23.7543C13.6356 23.7543 13.9377 25.037 13.4272 25.9149ZM58.0423 26.6951V22.9541L60.6317 22.995V36.8254H54.9118C52.4394 36.3302 51.4548 34.6437 51.3315 34.3541C51.3236 34.3352 51.3132 34.3118 51.3008 34.2839C51.1228 33.8831 50.5335 32.5561 50.8812 30.4008C51.9476 26.9478 54.9941 26.6951 54.9941 26.6951H58.0423ZM55.692 34.5551H57.9963L57.9957 28.9216H55.529C54.4178 29.2532 53.8789 30.114 53.7625 30.4865C53.6353 30.8585 53.3457 31.8045 53.5978 32.6233C54.0867 34.4717 55.692 34.5551 55.692 34.5551Z" fill="#E81717"/>
</svg>
