<svg width="33" height="32" viewBox="0 0 33 32" fill="none" xmlns="http://www.w3.org/2000/svg">
<path fill-rule="evenodd" clip-rule="evenodd" d="M10.8166 12.4844C10.89 13.202 11.1904 16.1379 8.68679 16.6875C6.12429 17.25 5.18679 14.25 5.49929 12.875C5.49929 12.875 5.74929 9.9375 7.81179 9.75C9.49929 9.625 10.6868 11.375 10.8118 12.4375C10.8132 12.4519 10.8148 12.4675 10.8166 12.4844ZM15.9368 7.9375C15.9368 9.9375 14.8118 11.5625 13.4368 11.5625C11.9993 11.5625 10.8743 9.9375 10.8743 7.9375C10.8743 5.9375 11.9993 4.3125 13.4368 4.3125C14.8118 4.3125 15.9368 5.9375 15.9368 7.9375ZM22.8118 8.5C22.5618 10.0625 21.3743 12.0625 19.4368 11.8125C17.5618 11.5625 17.1868 9.875 17.3743 8.1875C17.4993 6.75 19.1868 4.625 20.4993 4.9375C21.8118 5.25 23.0618 7 22.8118 8.5ZM24.0618 11.4375C26.3118 11.4375 26.9368 13.625 26.9368 14.375C26.9368 14.4266 26.9385 14.4919 26.9406 14.5686C26.9661 15.5143 27.0382 18.1922 24.4368 18.25C21.6243 18.3125 21.4993 16.375 21.4993 15C21.4993 13.5 21.8118 11.4375 24.0618 11.4375ZM19.4368 16.0625C21.1868 18.5 24.0618 20.75 24.0618 20.75C24.0618 20.75 26.2493 22.4375 24.8743 25.75C23.4368 29 18.3743 27.3125 18.3743 27.3125C18.3743 27.3125 16.4993 26.6875 14.3118 27.1875C12.1243 27.6875 10.2493 27.5 10.2493 27.5C10.2493 27.5 7.68679 27.5625 6.99929 24.3125C6.34029 21.5117 8.76952 19.7726 9.5383 19.2222C9.64446 19.1462 9.71896 19.0928 9.74929 19.0625C9.81237 18.9836 9.96697 18.8491 10.181 18.6628C10.8151 18.1109 11.9707 17.1052 12.8118 15.75C13.8743 13.9375 17.1868 12.5 19.4368 16.0625ZM13.8745 19.75V17.625H15.3745V25.625H12.062C10.6245 25.375 10.062 24.375 9.9995 24.1875C9.99765 24.1838 9.99546 24.1795 9.99297 24.1746C9.91158 24.0138 9.50507 23.211 9.687 21.9375C10.312 19.9375 12.1245 19.75 12.1245 19.75H13.8745ZM12.4995 24.3125H13.812V21.0625H12.437C11.7495 21.25 11.437 21.75 11.3745 21.9375C11.3678 21.9645 11.3596 21.9951 11.3505 22.0288C11.2759 22.3074 11.1447 22.7972 11.312 23.1875C11.562 24.25 12.4995 24.3125 12.4995 24.3125ZM16.187 24.1875V19.9375H17.687V23.75C17.812 24.125 18.312 24.1875 18.312 24.1875H19.8745V19.9375H21.4995V25.625H17.687C16.2495 25.25 16.187 24.1875 16.187 24.1875Z" fill="#E81717"/>
</svg>
