<svg width="20" height="20" viewBox="0 0 20 20" fill="none" xmlns="http://www.w3.org/2000/svg">
<mask id="mask0_2130_4052" style="mask-type:alpha" maskUnits="userSpaceOnUse" x="0" y="0" width="20" height="20">
<rect width="20" height="20" fill="#D9D9D9"/>
</mask>
<g mask="url(#mask0_2130_4052)">
<path d="M7.70833 16.6667C9.55556 16.6667 11.1285 16.0174 12.4271 14.7188C13.7257 13.4201 14.375 11.8472 14.375 10C14.375 8.15279 13.7257 6.57987 12.4271 5.28126C11.1285 3.98265 9.55556 3.33334 7.70833 3.33334H7.27083C7.13194 3.33334 7 3.34723 6.875 3.37501C7.66667 4.29168 8.28125 5.31598 8.71875 6.44793C9.15625 7.57987 9.375 8.7639 9.375 10C9.375 11.2361 9.15625 12.4201 8.71875 13.5521C8.28125 14.684 7.66667 15.7083 6.875 16.625C7 16.6528 7.13194 16.6667 7.27083 16.6667H7.70833ZM7.70833 17.9167C7.34333 17.9167 6.97833 17.8854 6.61333 17.8229C6.24833 17.7604 5.89701 17.664 5.55938 17.5336C5.41188 17.4802 5.29222 17.3891 5.20042 17.2602C5.10847 17.1313 5.0625 16.9896 5.0625 16.835C5.0625 16.7292 5.08361 16.6292 5.12583 16.5352C5.16806 16.4412 5.23403 16.3579 5.32375 16.2852C6.21583 15.4786 6.90576 14.5304 7.39354 13.4406C7.88118 12.3509 8.125 11.204 8.125 10C8.125 8.79598 7.87771 7.65258 7.38313 6.5698C6.8884 5.48702 6.19764 4.538 5.31083 3.72272C5.22972 3.65008 5.16806 3.56675 5.12583 3.47272C5.08361 3.37869 5.0625 3.27883 5.0625 3.17314C5.0625 3.01175 5.10632 2.86696 5.19396 2.73876C5.2816 2.61057 5.3991 2.5198 5.54646 2.46647C5.89271 2.33605 6.24833 2.23959 6.61333 2.17709C6.97833 2.11459 7.34333 2.08334 7.70833 2.08334C8.80347 2.08334 9.83264 2.29112 10.7958 2.70668C11.759 3.12223 12.5969 3.68619 13.3094 4.39855C14.0219 5.11091 14.5859 5.94862 15.0015 6.91168C15.4172 7.87473 15.625 8.90369 15.625 9.99855C15.625 11.0936 15.4172 12.1228 15.0015 13.0863C14.5859 14.0497 14.0219 14.8878 13.3094 15.6004C12.5969 16.3131 11.759 16.8773 10.7958 17.2931C9.83264 17.7088 8.80347 17.9167 7.70833 17.9167Z" fill="black"/>
</g>
</svg>
