<svg width="147" height="128" viewBox="0 0 147 128" fill="none" xmlns="http://www.w3.org/2000/svg">
<path d="M50.7582 38.9999V29.5453H54.3775C55.0608 29.5453 55.6286 29.653 56.081 29.8685C56.5365 30.0808 56.8766 30.3717 57.1013 30.741C57.329 31.1103 57.4429 31.5289 57.4429 31.9967C57.4429 32.3814 57.369 32.7107 57.2213 32.9846C57.0736 33.2554 56.875 33.4755 56.6258 33.6448C56.3765 33.814 56.0979 33.9356 55.7902 34.0095V34.1018C56.1256 34.1203 56.4473 34.2234 56.755 34.4111C57.0659 34.5958 57.3198 34.8574 57.5167 35.1959C57.7137 35.5344 57.8122 35.9438 57.8122 36.4239C57.8122 36.9132 57.6937 37.3533 57.4567 37.7442C57.2197 38.132 56.8627 38.4382 56.3857 38.6629C55.9087 38.8875 55.3085 38.9999 54.5853 38.9999H50.7582ZM52.4709 37.5688H54.3129C54.9346 37.5688 55.3824 37.4503 55.6563 37.2133C55.9333 36.9732 56.0718 36.6655 56.0718 36.29C56.0718 36.0099 56.0025 35.7576 55.864 35.5329C55.7255 35.3052 55.5286 35.1267 55.2731 34.9974C55.0177 34.8651 54.713 34.7989 54.3591 34.7989H52.4709V37.5688ZM52.4709 33.5663H54.1652C54.4606 33.5663 54.7268 33.5124 54.9638 33.4047C55.2008 33.2939 55.387 33.1385 55.5224 32.9384C55.6609 32.7353 55.7302 32.4953 55.7302 32.2183C55.7302 31.852 55.6009 31.5504 55.3424 31.3134C55.0869 31.0765 54.7068 30.958 54.2021 30.958H52.4709V33.5663ZM59.8783 38.9999V31.909H61.4987V33.0908H61.5725C61.7018 32.6815 61.9234 32.366 62.2373 32.1444C62.5543 31.9197 62.9159 31.8074 63.3222 31.8074C63.4145 31.8074 63.5176 31.812 63.6315 31.8213C63.7484 31.8274 63.8454 31.8382 63.9223 31.8536V33.3909C63.8515 33.3662 63.7392 33.3447 63.5853 33.3262C63.4345 33.3047 63.2883 33.2939 63.1468 33.2939C62.8421 33.2939 62.5682 33.3601 62.325 33.4924C62.085 33.6217 61.8957 33.8017 61.7572 34.0325C61.6187 34.2634 61.5495 34.5296 61.5495 34.8312V38.9999H59.8783ZM68.4836 39.1384C67.7912 39.1384 67.191 38.986 66.6832 38.6813C66.1754 38.3767 65.7815 37.9504 65.5014 37.4026C65.2244 36.8548 65.0859 36.2146 65.0859 35.4821C65.0859 34.7496 65.2244 34.108 65.5014 33.5571C65.7815 33.0062 66.1754 32.5784 66.6832 32.2737C67.191 31.969 67.7912 31.8166 68.4836 31.8166C69.1761 31.8166 69.7763 31.969 70.2841 32.2737C70.7919 32.5784 71.1843 33.0062 71.4613 33.5571C71.7413 34.108 71.8814 34.7496 71.8814 35.4821C71.8814 36.2146 71.7413 36.8548 71.4613 37.4026C71.1843 37.9504 70.7919 38.3767 70.2841 38.6813C69.7763 38.986 69.1761 39.1384 68.4836 39.1384ZM68.4929 37.7996C68.8683 37.7996 69.1823 37.6965 69.4346 37.4903C69.687 37.281 69.8747 37.0009 69.9978 36.6501C70.124 36.2992 70.1871 35.9084 70.1871 35.4775C70.1871 35.0436 70.124 34.6512 69.9978 34.3003C69.8747 33.9464 69.687 33.6648 69.4346 33.4555C69.1823 33.2462 68.8683 33.1416 68.4929 33.1416C68.1082 33.1416 67.7881 33.2462 67.5326 33.4555C67.2803 33.6648 67.091 33.9464 66.9648 34.3003C66.8417 34.6512 66.7802 35.0436 66.7802 35.4775C66.7802 35.9084 66.8417 36.2992 66.9648 36.6501C67.091 37.0009 67.2803 37.281 67.5326 37.4903C67.7881 37.6965 68.1082 37.7996 68.4929 37.7996ZM75.4732 36.7747L75.4686 34.7573H75.7364L78.2847 31.909H80.2374L77.1028 35.399H76.7566L75.4732 36.7747ZM73.9498 38.9999V29.5453H75.6209V38.9999H73.9498ZM78.4001 38.9999L76.0918 35.773L77.2182 34.5958L80.399 38.9999H78.4001ZM84.8484 39.1384C84.1374 39.1384 83.5234 38.9906 83.0064 38.6952C82.4924 38.3967 82.0969 37.975 81.8199 37.4303C81.543 36.8825 81.4045 36.2377 81.4045 35.496C81.4045 34.7666 81.543 34.1264 81.8199 33.5755C82.1 33.0215 82.4909 32.5907 82.9925 32.2829C83.4942 31.9721 84.0836 31.8166 84.7606 31.8166C85.1977 31.8166 85.6101 31.8874 85.9979 32.029C86.3887 32.1675 86.7334 32.3829 87.032 32.6753C87.3336 32.9677 87.5705 33.3401 87.7429 33.7925C87.9152 34.2418 88.0014 34.7773 88.0014 35.399V35.9115H82.1893V34.785H86.3995C86.3964 34.465 86.3272 34.1803 86.1918 33.931C86.0563 33.6786 85.8671 33.4801 85.6239 33.3355C85.3839 33.1908 85.1038 33.1185 84.7837 33.1185C84.4421 33.1185 84.142 33.2016 83.8835 33.3678C83.625 33.5309 83.4234 33.7463 83.2788 34.0141C83.1372 34.2788 83.0649 34.5696 83.0618 34.8866V35.8699C83.0618 36.2823 83.1372 36.6362 83.288 36.9317C83.4388 37.2241 83.6496 37.4487 83.9204 37.6057C84.1913 37.7596 84.5083 37.8365 84.8714 37.8365C85.1146 37.8365 85.3346 37.8027 85.5316 37.735C85.7286 37.6642 85.8994 37.5611 86.044 37.4257C86.1887 37.2902 86.2979 37.1225 86.3718 36.9225L87.9322 37.0979C87.8337 37.5103 87.6459 37.8704 87.369 38.1781C87.095 38.4828 86.7442 38.7198 86.3164 38.8891C85.8886 39.0553 85.3993 39.1384 84.8484 39.1384ZM91.7364 34.845V38.9999H90.0652V31.909H91.6625V33.1139H91.7456C91.9087 32.7169 92.1688 32.4014 92.5258 32.1675C92.8859 31.9336 93.3306 31.8166 93.86 31.8166C94.3493 31.8166 94.7756 31.9213 95.1387 32.1306C95.505 32.3398 95.7881 32.643 95.9881 33.04C96.1913 33.437 96.2913 33.9187 96.2882 34.485V38.9999H94.6171V34.7435C94.6171 34.2695 94.4939 33.8987 94.2477 33.6309C94.0046 33.3632 93.6676 33.2293 93.2367 33.2293C92.9444 33.2293 92.6843 33.2939 92.4565 33.4232C92.2319 33.5494 92.0549 33.7325 91.9256 33.9725C91.7995 34.2126 91.7364 34.5034 91.7364 34.845Z" fill="#8D969E"/>
<path fill-rule="evenodd" clip-rule="evenodd" d="M69.8438 56.3981C71.3832 56.5078 72.6725 57.307 73.5827 58.2125C73.9767 58.6046 73.9867 59.2504 73.605 59.6551C73.2233 60.0597 72.5944 60.07 72.2004 59.678C71.5213 59.0023 70.6502 58.5008 69.7063 58.4335C68.8017 58.369 67.6716 58.6915 66.402 59.9688L60.0065 67.0425C59.6496 67.5687 59.2088 68.4196 59.1163 69.3461C59.0285 70.226 59.242 71.2398 60.343 72.2252C60.8542 72.5935 61.6896 73.0536 62.5999 73.1495C63.4653 73.2405 64.4636 73.0159 65.4321 71.8554L65.445 71.84L68.6866 68.2547C69.0599 67.8418 69.6884 67.8179 70.0904 68.2013C70.4924 68.5847 70.5156 69.2301 70.1423 69.643L66.9271 73.1992C65.5147 74.882 63.8699 75.3341 62.3974 75.1791C60.9868 75.0306 59.804 74.3374 59.1525 73.8595L59.1168 73.8333L59.0835 73.8039C57.4322 72.3503 56.9887 70.6552 57.1401 69.1381C57.2847 67.6894 57.9597 66.4745 58.425 65.8055L58.462 65.7522L64.9769 58.5465L64.9928 58.5305C66.598 56.9072 68.2687 56.2858 69.8438 56.3981Z" fill="#8D969E"/>
<path fill-rule="evenodd" clip-rule="evenodd" d="M77.1809 67.6044C75.6415 67.4947 74.3522 66.6956 73.442 65.79C73.048 65.398 73.0381 64.7522 73.4198 64.3475C73.8014 63.9428 74.4303 63.9326 74.8243 64.3246C75.5034 65.0003 76.3745 65.5018 77.3185 65.5691C78.2231 65.6335 79.3531 65.3111 80.6227 64.0338L87.0183 56.9601C87.3751 56.4339 87.8159 55.583 87.9084 54.6565C87.9962 53.7765 87.7827 52.7628 86.6817 51.7773C86.1706 51.4091 85.3351 50.9489 84.4248 50.8531C83.5594 50.762 82.5612 50.9866 81.5926 52.1471L81.5798 52.1625L78.3381 55.7479C77.9649 56.1607 77.3364 56.1846 76.9344 55.8013C76.5324 55.4179 76.5091 54.7724 76.8824 54.3596L80.0976 50.8034C81.51 49.1206 83.1548 48.6684 84.6273 48.8234C86.0379 48.9719 87.2207 49.6652 87.8722 50.1431L87.9079 50.1693L87.9413 50.1987C89.5925 51.6523 90.036 53.3474 89.8846 54.8645C89.7401 56.3132 89.065 57.528 88.5997 58.1971L88.5627 58.2503L82.0478 65.456L82.032 65.472C80.4267 67.0953 78.756 67.7167 77.1809 67.6044Z" fill="#8D969E"/>
<path fill-rule="evenodd" clip-rule="evenodd" d="M76.6063 50.5434C76.0922 50.3471 75.8303 49.7598 76.0215 49.2317L77.6749 44.6648C77.8661 44.1367 78.438 43.8678 78.9521 44.0641C79.4663 44.2605 79.7282 44.8478 79.537 45.3758L77.8835 49.9428C77.6923 50.4709 77.1205 50.7398 76.6063 50.5434Z" fill="#8D969E"/>
<path fill-rule="evenodd" clip-rule="evenodd" d="M72.0984 53.5737C72.2354 53.0282 71.9158 52.4718 71.3846 52.3311L66.7908 51.1143C66.2596 50.9736 65.7179 51.3018 65.5809 51.8474C65.4439 52.3929 65.7634 52.9492 66.2946 53.0899L70.8885 54.3068C71.4197 54.4475 71.9614 54.1193 72.0984 53.5737Z" fill="#8D969E"/>
<path fill-rule="evenodd" clip-rule="evenodd" d="M73.5464 50.4514C74.014 50.1568 74.1606 49.5287 73.8737 49.0484L71.3933 44.895C71.1065 44.4147 70.4949 44.2642 70.0273 44.5588C69.5596 44.8533 69.413 45.4815 69.6999 45.9617L72.1803 50.1152C72.4671 50.5954 73.0787 50.746 73.5464 50.4514Z" fill="#8D969E"/>
<path fill-rule="evenodd" clip-rule="evenodd" d="M70.6085 73.4563C71.1227 73.6527 71.3845 74.24 71.1933 74.768L69.5399 79.335C69.3487 79.8631 68.7769 80.132 68.2627 79.9356C67.7485 79.7393 67.4867 79.152 67.6779 78.6239L69.3313 74.057C69.5225 73.5289 70.0943 73.26 70.6085 73.4563Z" fill="#8D969E"/>
<path fill-rule="evenodd" clip-rule="evenodd" d="M75.1164 70.426C74.9794 70.9716 75.299 71.5279 75.8302 71.6686L80.4241 72.8855C80.9553 73.0262 81.497 72.698 81.634 72.1524C81.771 71.6068 81.4514 71.0505 80.9202 70.9098L76.3263 69.693C75.7951 69.5523 75.2534 69.8805 75.1164 70.426Z" fill="#8D969E"/>
<path fill-rule="evenodd" clip-rule="evenodd" d="M73.6685 73.5484C73.2008 73.8429 73.0543 74.4711 73.3411 74.9513L75.8215 79.1048C76.1084 79.585 76.72 79.7356 77.1876 79.441C77.6552 79.1464 77.8018 78.5183 77.515 78.038L75.0345 73.8846C74.7477 73.4043 74.1361 73.2538 73.6685 73.5484Z" fill="#8D969E"/>
<path d="M47.438 84.4569L58.5921 84.4569L58.592 96.1699L57.019 96.1699L57.019 85.8479L48.933 85.8479L48.933 96.1699L47.438 96.1699L47.438 84.4569ZM48.361 94.3369L57.864 94.3369L57.864 95.7019L48.361 95.7019L48.361 94.3369ZM51.156 91.5289L51.78 90.6449C52.144 90.7142 52.5254 90.8052 52.924 90.9179C53.3314 91.0219 53.717 91.1345 54.081 91.2559C54.4537 91.3772 54.77 91.4985 55.03 91.6199L54.393 92.5819C54.1417 92.4605 53.8297 92.3349 53.457 92.2049C53.0844 92.0662 52.6987 91.9362 52.3 91.8149C51.9014 91.6935 51.52 91.5982 51.156 91.5289ZM51.78 85.8089L53.054 86.2509C52.8027 86.6322 52.508 87.0092 52.17 87.3819C51.832 87.7459 51.4767 88.0882 51.104 88.4089C50.7314 88.7295 50.3674 89.0112 50.012 89.2539C49.9427 89.1585 49.843 89.0545 49.713 88.9419C49.5917 88.8292 49.466 88.7165 49.336 88.6039C49.206 88.4825 49.089 88.3872 48.985 88.3179C49.5224 88.0145 50.0424 87.6419 50.545 87.1999C51.0564 86.7492 51.468 86.2855 51.78 85.8089ZM55.225 86.8489L55.472 86.8489L55.693 86.7839L56.564 87.3039C56.226 87.8325 55.7927 88.3222 55.264 88.7729C54.744 89.2149 54.1677 89.6135 53.535 89.9689C52.9024 90.3155 52.2394 90.6189 51.546 90.8789C50.8614 91.1389 50.1767 91.3512 49.492 91.5159C49.4487 91.3945 49.3837 91.2559 49.297 91.0999C49.219 90.9352 49.1324 90.7792 49.037 90.6319C48.9504 90.4759 48.8637 90.3502 48.777 90.2549C49.427 90.1335 50.077 89.9689 50.727 89.7609C51.3857 89.5529 52.0054 89.3102 52.586 89.0329C53.1754 88.7555 53.6954 88.4479 54.146 88.1099C54.6054 87.7719 54.965 87.4122 55.225 87.0309L55.225 86.8489ZM51.533 87.7459C51.9144 88.1359 52.404 88.4912 53.002 88.8119C53.6 89.1325 54.2587 89.4099 54.978 89.6439C55.706 89.8779 56.4427 90.0599 57.188 90.1899C57.0494 90.3285 56.8934 90.5149 56.72 90.7489C56.5554 90.9742 56.4254 91.1735 56.33 91.3469C55.5674 91.1822 54.8177 90.9525 54.081 90.6579C53.3444 90.3632 52.6597 90.0122 52.027 89.6049C51.3944 89.1975 50.8527 88.7512 50.402 88.2659L51.533 87.7459ZM51.832 86.8489L55.667 86.8489L55.667 87.9929L51.039 87.9929L51.832 86.8489ZM49.96 93.1929L50.662 92.1789C51.104 92.2222 51.5634 92.2872 52.04 92.3739C52.5254 92.4519 53.0064 92.5429 53.483 92.6469C53.9597 92.7422 54.4104 92.8462 54.835 92.9589C55.2597 93.0715 55.641 93.1799 55.979 93.2839L55.29 94.3889C54.8654 94.2329 54.3497 94.0769 53.743 93.9209C53.145 93.7562 52.5167 93.6132 51.858 93.4919C51.1994 93.3619 50.5667 93.2622 49.96 93.1929ZM62.908 84.0019L64.338 84.4309C64.065 85.2629 63.727 86.1209 63.35 86.9529L63.35 96.1179L61.881 96.1179L61.881 89.6179C61.621 90.0079 61.348 90.3719 61.075 90.6839C60.958 90.3199 60.581 89.4229 60.334 89.0199C61.374 87.8109 62.336 85.9129 62.908 84.0019ZM65.885 87.6419L65.885 88.6299L67.562 88.6299L67.562 87.6419L65.885 87.6419ZM68.485 85.8999L66.522 85.8999C66.34 86.1339 66.158 86.3679 65.963 86.5889L67.978 86.5889C68.147 86.3939 68.329 86.1469 68.485 85.8999ZM70.799 88.6299L70.799 87.6419L68.94 87.6419L68.94 88.6299L70.799 88.6299ZM67.744 94.6099C67.926 94.4409 68.043 94.0899 68.056 93.6479C67.497 94.0509 66.873 94.4669 66.236 94.8179C66.574 94.8569 66.873 94.8699 67.107 94.8699C67.367 94.8699 67.575 94.8179 67.744 94.6099ZM71.683 89.9299L72.723 90.8529C72.164 91.3469 71.488 91.8669 70.929 92.2309C71.423 93.1539 72.06 93.9209 72.892 94.4019C72.554 94.6749 72.112 95.2339 71.904 95.6109C70.175 94.4409 69.239 92.2959 68.693 89.6699L68.433 89.6699C68.212 89.8519 67.965 90.0339 67.705 90.2029C69.798 91.9839 69.759 94.7529 68.771 95.6109C68.368 96.0009 67.965 96.1179 67.393 96.1439C67.133 96.1439 66.808 96.1309 66.483 96.1049C66.457 95.7539 66.366 95.2469 66.158 94.8569C65.586 95.1819 65.014 95.4549 64.481 95.6759C64.299 95.3509 63.961 94.8699 63.662 94.5839C65.053 94.1679 66.743 93.2709 67.796 92.3869C67.731 92.2309 67.653 92.0879 67.575 91.9319C66.665 92.5559 65.534 93.1669 64.585 93.5439C64.429 93.2579 64.13 92.8289 63.883 92.5819C64.871 92.2959 66.119 91.7239 66.977 91.1389C66.886 91.0349 66.782 90.9309 66.665 90.8269C66.002 91.2039 65.3 91.5159 64.65 91.7499C64.455 91.5029 64.052 90.9829 63.792 90.7489C64.702 90.4889 65.651 90.1249 66.47 89.6699L64.494 89.6699L64.494 87.6549C64.221 87.3949 63.831 87.1089 63.545 86.9659C64.767 86.1079 65.651 84.9639 66.132 84.0019L67.588 84.2619C67.497 84.4309 67.393 84.6129 67.289 84.7819L69.291 84.7819L69.564 84.6909L70.474 85.3409C70.227 85.7439 69.928 86.1859 69.616 86.5889L72.281 86.5889L72.281 89.6699L70.006 89.6699C70.123 90.1639 70.253 90.6449 70.422 91.0999C70.877 90.7229 71.358 90.2809 71.683 89.9299ZM74.101 90.8269C74.4824 90.7402 74.9114 90.6405 75.388 90.5279C75.8734 90.4065 76.3804 90.2765 76.909 90.1379C77.4464 89.9905 77.975 89.8389 78.495 89.6829L78.69 91.0869C77.9447 91.3035 77.1907 91.5245 76.428 91.7499C75.6654 91.9665 74.9677 92.1615 74.335 92.3349L74.101 90.8269ZM74.27 86.4199L78.56 86.4199L78.56 87.8499L74.27 87.8499L74.27 86.4199ZM75.674 83.9629L77.221 83.9629L77.221 94.2979C77.221 94.6792 77.182 94.9825 77.104 95.2079C77.026 95.4419 76.883 95.6239 76.675 95.7539C76.4584 95.8839 76.194 95.9705 75.882 96.0139C75.57 96.0572 75.1887 96.0745 74.738 96.0659C74.7207 95.8579 74.6687 95.5979 74.582 95.2859C74.4954 94.9825 74.4044 94.7225 74.309 94.5059C74.543 94.5145 74.7684 94.5189 74.985 94.5189C75.2104 94.5189 75.3664 94.5189 75.453 94.5189C75.5397 94.5189 75.596 94.5015 75.622 94.4669C75.6567 94.4322 75.674 94.3715 75.674 94.2849L75.674 83.9629ZM80.874 85.5619L80.874 86.7579L83.643 86.7579L83.643 85.5619L80.874 85.5619ZM79.34 84.4439L85.255 84.4439L85.255 87.8759L79.34 87.8759L79.34 84.4439ZM81.537 90.5539L83.071 90.5539L83.071 91.9059C83.071 92.2612 83.0147 92.6296 82.902 93.0109C82.7894 93.3922 82.577 93.7692 82.265 94.1419C81.9617 94.5146 81.5197 94.8699 80.939 95.2079C80.3584 95.5459 79.6 95.8492 78.664 96.1179C78.5687 95.9359 78.4257 95.7106 78.235 95.4419C78.053 95.1819 77.8754 94.9739 77.702 94.8179C78.5687 94.6186 79.2577 94.3976 79.769 94.1549C80.289 93.9036 80.6747 93.6479 80.926 93.3879C81.1774 93.1192 81.342 92.8549 81.42 92.5949C81.498 92.3349 81.537 92.0922 81.537 91.8669L81.537 90.5539ZM82.772 94.2459L83.682 93.2449C83.9767 93.4269 84.3017 93.6306 84.657 93.8559C85.021 94.0812 85.372 94.3022 85.71 94.5189C86.048 94.7356 86.321 94.9306 86.529 95.1039L85.58 96.2349C85.372 96.0616 85.1034 95.8579 84.774 95.6239C84.4534 95.3899 84.111 95.1516 83.747 94.9089C83.3917 94.6662 83.0667 94.4452 82.772 94.2459ZM78.976 88.5779L85.645 88.5779L85.645 93.3099L84.111 93.3099L84.111 89.7869L80.458 89.7869L80.458 93.3879L78.976 93.3879L78.976 88.5779ZM90.91 91.7759L92.158 91.3599L92.444 92.7899C91.014 93.3359 89.493 93.9079 88.271 94.3369L87.777 92.7639C88.258 92.6339 88.83 92.4519 89.454 92.2569L89.454 88.5389L88.063 88.5389L88.063 87.0829L89.454 87.0829L89.454 84.1839L90.91 84.1839L90.91 87.0829L92.08 87.0829L92.08 88.5389L90.91 88.5389L90.91 91.7759ZM96.604 88.5649L97.267 87.9149C98.242 88.6819 99.594 89.7869 100.244 90.5019L99.139 91.6329C98.619 90.9699 97.527 89.9689 96.604 89.2019L96.604 96.1179L95.057 96.1179L95.057 89.6049C94.29 90.3979 93.445 91.0609 92.548 91.5809C92.301 91.2429 91.742 90.5799 91.417 90.2939C93.185 89.4099 94.719 87.9539 95.655 86.1729L92.028 86.1729L92.028 84.7039L99.919 84.7039L99.919 86.1729L97.436 86.1729C97.202 86.6929 96.916 87.1999 96.604 87.6679L96.604 88.5649Z" fill="#8D969E"/>
</svg>
