<svg width="87" height="76" viewBox="0 0 87 76" fill="none" xmlns="http://www.w3.org/2000/svg">
<path d="M20.7582 14.9999V5.54533H24.3775C25.0608 5.54533 25.6286 5.65305 26.081 5.86849C26.5365 6.08084 26.8766 6.37168 27.1013 6.741C27.329 7.11032 27.4429 7.52888 27.4429 7.99668C27.4429 8.38139 27.369 8.7107 27.2213 8.98461C27.0736 9.25544 26.875 9.47549 26.6258 9.64476C26.3765 9.81403 26.0979 9.9356 25.7902 10.0095V10.1018C26.1256 10.1203 26.4473 10.2234 26.755 10.4111C27.0659 10.5958 27.3198 10.8574 27.5167 11.1959C27.7137 11.5344 27.8122 11.9438 27.8122 12.4239C27.8122 12.9132 27.6937 13.3533 27.4567 13.7442C27.2197 14.132 26.8627 14.4382 26.3857 14.6629C25.9087 14.8875 25.3085 14.9999 24.5853 14.9999H20.7582ZM22.4709 13.5688H24.3129C24.9346 13.5688 25.3824 13.4503 25.6563 13.2133C25.9333 12.9732 26.0718 12.6655 26.0718 12.29C26.0718 12.0099 26.0025 11.7576 25.864 11.5329C25.7255 11.3052 25.5286 11.1267 25.2731 10.9974C25.0177 10.8651 24.713 10.7989 24.3591 10.7989H22.4709V13.5688ZM22.4709 9.56628H24.1652C24.4606 9.56628 24.7268 9.51243 24.9638 9.40471C25.2008 9.29391 25.387 9.13849 25.5224 8.93844C25.6609 8.73532 25.7302 8.49526 25.7302 8.21827C25.7302 7.85203 25.6009 7.55042 25.3424 7.31344C25.0869 7.07646 24.7068 6.95797 24.2021 6.95797H22.4709V9.56628ZM29.8783 14.9999V7.90897H31.4987V9.09079H31.5725C31.7018 8.68146 31.9234 8.366 32.2373 8.14441C32.5543 7.91974 32.9159 7.80741 33.3222 7.80741C33.4145 7.80741 33.5176 7.81202 33.6315 7.82126C33.7484 7.82741 33.8454 7.83818 33.9223 7.85357V9.39086C33.8515 9.36624 33.7392 9.34469 33.5853 9.32623C33.4345 9.30468 33.2883 9.29391 33.1468 9.29391C32.8421 9.29391 32.5682 9.36008 32.325 9.49242C32.085 9.62168 31.8957 9.80172 31.7572 10.0325C31.6187 10.2634 31.5495 10.5296 31.5495 10.8312V14.9999H29.8783ZM38.4836 15.1384C37.7912 15.1384 37.191 14.986 36.6832 14.6813C36.1754 14.3767 35.7815 13.9504 35.5014 13.4026C35.2244 12.8548 35.0859 12.2146 35.0859 11.4821C35.0859 10.7496 35.2244 10.108 35.5014 9.55705C35.7815 9.00615 36.1754 8.57836 36.6832 8.27367C37.191 7.96898 37.7912 7.81664 38.4836 7.81664C39.1761 7.81664 39.7763 7.96898 40.2841 8.27367C40.7919 8.57836 41.1843 9.00615 41.4613 9.55705C41.7413 10.108 41.8814 10.7496 41.8814 11.4821C41.8814 12.2146 41.7413 12.8548 41.4613 13.4026C41.1843 13.9504 40.7919 14.3767 40.2841 14.6813C39.7763 14.986 39.1761 15.1384 38.4836 15.1384ZM38.4929 13.7996C38.8683 13.7996 39.1823 13.6965 39.4346 13.4903C39.687 13.281 39.8747 13.0009 39.9978 12.6501C40.124 12.2992 40.1871 11.9084 40.1871 11.4775C40.1871 11.0436 40.124 10.6512 39.9978 10.3003C39.8747 9.94637 39.687 9.66477 39.4346 9.45549C39.1823 9.24621 38.8683 9.14157 38.4929 9.14157C38.1082 9.14157 37.7881 9.24621 37.5326 9.45549C37.2803 9.66477 37.091 9.94637 36.9648 10.3003C36.8417 10.6512 36.7802 11.0436 36.7802 11.4775C36.7802 11.9084 36.8417 12.2992 36.9648 12.6501C37.091 13.0009 37.2803 13.281 37.5326 13.4903C37.7881 13.6965 38.1082 13.7996 38.4929 13.7996ZM45.4732 12.7747L45.4686 10.7573H45.7364L48.2847 7.90897H50.2374L47.1028 11.399H46.7566L45.4732 12.7747ZM43.9498 14.9999V5.54533H45.6209V14.9999H43.9498ZM48.4001 14.9999L46.0918 11.773L47.2182 10.5958L50.399 14.9999H48.4001ZM54.8484 15.1384C54.1374 15.1384 53.5234 14.9906 53.0064 14.6952C52.4924 14.3967 52.0969 13.975 51.8199 13.4303C51.543 12.8825 51.4045 12.2377 51.4045 11.496C51.4045 10.7666 51.543 10.1264 51.8199 9.57552C52.1 9.02154 52.4909 8.59067 52.9925 8.2829C53.4942 7.97206 54.0836 7.81664 54.7606 7.81664C55.1977 7.81664 55.6101 7.88743 55.9979 8.029C56.3887 8.16749 56.7334 8.38293 57.032 8.6753C57.3336 8.96768 57.5705 9.34008 57.7429 9.79249C57.9152 10.2418 58.0014 10.7773 58.0014 11.399V11.9115H52.1893V10.785H56.3995C56.3964 10.465 56.3272 10.1803 56.1918 9.93099C56.0563 9.67862 55.8671 9.48011 55.6239 9.33546C55.3839 9.19081 55.1038 9.11849 54.7837 9.11849C54.4421 9.11849 54.142 9.20158 53.8835 9.36778C53.625 9.53089 53.4234 9.74633 53.2788 10.0141C53.1372 10.2788 53.0649 10.5696 53.0618 10.8866V11.8699C53.0618 12.2823 53.1372 12.6362 53.288 12.9317C53.4388 13.2241 53.6496 13.4487 53.9204 13.6057C54.1913 13.7596 54.5083 13.8365 54.8714 13.8365C55.1146 13.8365 55.3346 13.8027 55.5316 13.735C55.7286 13.6642 55.8994 13.5611 56.044 13.4257C56.1887 13.2902 56.2979 13.1225 56.3718 12.9225L57.9322 13.0979C57.8337 13.5103 57.6459 13.8704 57.369 14.1781C57.095 14.4828 56.7442 14.7198 56.3164 14.8891C55.8886 15.0553 55.3993 15.1384 54.8484 15.1384ZM61.7364 10.845V14.9999H60.0652V7.90897H61.6625V9.11387H61.7456C61.9087 8.71685 62.1688 8.40139 62.5258 8.16749C62.8859 7.93359 63.3306 7.81664 63.86 7.81664C64.3493 7.81664 64.7756 7.92128 65.1387 8.13056C65.505 8.33984 65.7881 8.64299 65.9881 9.04001C66.1913 9.43702 66.2913 9.91868 66.2882 10.485V14.9999H64.6171V10.7435C64.6171 10.2695 64.4939 9.89867 64.2477 9.63091C64.0046 9.36316 63.6676 9.22928 63.2367 9.22928C62.9444 9.22928 62.6843 9.29391 62.4565 9.42317C62.2319 9.54936 62.0549 9.73248 61.9256 9.97253C61.7995 10.2126 61.7364 10.5034 61.7364 10.845Z" fill="#8D969E"/>
<path fill-rule="evenodd" clip-rule="evenodd" d="M39.8438 32.3981C41.3832 32.5078 42.6725 33.307 43.5827 34.2125C43.9767 34.6046 43.9867 35.2504 43.605 35.6551C43.2233 36.0597 42.5944 36.07 42.2004 35.678C41.5213 35.0023 40.6502 34.5008 39.7063 34.4335C38.8017 34.369 37.6716 34.6915 36.402 35.9688L30.0065 43.0425C29.6496 43.5687 29.2088 44.4196 29.1163 45.3461C29.0285 46.226 29.242 47.2398 30.343 48.2252C30.8542 48.5935 31.6896 49.0536 32.5999 49.1495C33.4653 49.2405 34.4636 49.0159 35.4321 47.8554L35.445 47.84L38.6866 44.2547C39.0599 43.8418 39.6884 43.8179 40.0904 44.2013C40.4924 44.5847 40.5156 45.2301 40.1423 45.643L36.9271 49.1992C35.5147 50.882 33.8699 51.3341 32.3974 51.1791C30.9868 51.0306 29.804 50.3374 29.1525 49.8595L29.1168 49.8333L29.0835 49.8039C27.4322 48.3503 26.9887 46.6552 27.1401 45.1381C27.2847 43.6894 27.9597 42.4745 28.425 41.8055L28.462 41.7522L34.9769 34.5465L34.9928 34.5305C36.598 32.9072 38.2687 32.2858 39.8438 32.3981Z" fill="#8D969E"/>
<path fill-rule="evenodd" clip-rule="evenodd" d="M47.1809 43.6044C45.6415 43.4947 44.3522 42.6956 43.442 41.79C43.048 41.398 43.0381 40.7522 43.4198 40.3475C43.8014 39.9428 44.4303 39.9326 44.8243 40.3246C45.5034 41.0003 46.3745 41.5018 47.3185 41.5691C48.2231 41.6335 49.3531 41.3111 50.6227 40.0338L57.0183 32.9601C57.3751 32.4339 57.8159 31.583 57.9084 30.6565C57.9962 29.7765 57.7827 28.7628 56.6817 27.7773C56.1706 27.4091 55.3351 26.9489 54.4248 26.8531C53.5594 26.762 52.5612 26.9866 51.5926 28.1471L51.5798 28.1625L48.3381 31.7479C47.9649 32.1607 47.3364 32.1846 46.9344 31.8013C46.5324 31.4179 46.5091 30.7724 46.8824 30.3596L50.0976 26.8034C51.51 25.1206 53.1548 24.6684 54.6273 24.8234C56.0379 24.9719 57.2207 25.6652 57.8722 26.1431L57.9079 26.1693L57.9413 26.1987C59.5925 27.6523 60.036 29.3474 59.8846 30.8645C59.7401 32.3132 59.065 33.528 58.5997 34.1971L58.5627 34.2503L52.0478 41.456L52.032 41.472C50.4267 43.0953 48.756 43.7167 47.1809 43.6044Z" fill="#8D969E"/>
<path fill-rule="evenodd" clip-rule="evenodd" d="M46.6063 26.5434C46.0922 26.3471 45.8303 25.7598 46.0215 25.2317L47.6749 20.6648C47.8661 20.1367 48.438 19.8678 48.9521 20.0641C49.4663 20.2605 49.7282 20.8478 49.537 21.3758L47.8835 25.9428C47.6923 26.4709 47.1205 26.7398 46.6063 26.5434Z" fill="#8D969E"/>
<path fill-rule="evenodd" clip-rule="evenodd" d="M42.0984 29.5737C42.2354 29.0282 41.9158 28.4718 41.3846 28.3311L36.7908 27.1143C36.2596 26.9736 35.7179 27.3018 35.5809 27.8474C35.4439 28.3929 35.7634 28.9492 36.2946 29.0899L40.8885 30.3068C41.4197 30.4475 41.9614 30.1193 42.0984 29.5737Z" fill="#8D969E"/>
<path fill-rule="evenodd" clip-rule="evenodd" d="M43.5464 26.4514C44.014 26.1568 44.1606 25.5287 43.8737 25.0484L41.3933 20.895C41.1065 20.4147 40.4949 20.2642 40.0273 20.5588C39.5596 20.8533 39.413 21.4815 39.6999 21.9617L42.1803 26.1152C42.4671 26.5954 43.0787 26.746 43.5464 26.4514Z" fill="#8D969E"/>
<path fill-rule="evenodd" clip-rule="evenodd" d="M40.6085 49.4563C41.1227 49.6527 41.3845 50.24 41.1933 50.768L39.5399 55.335C39.3487 55.8631 38.7769 56.132 38.2627 55.9356C37.7485 55.7393 37.4867 55.152 37.6779 54.6239L39.3313 50.057C39.5225 49.5289 40.0943 49.26 40.6085 49.4563Z" fill="#8D969E"/>
<path fill-rule="evenodd" clip-rule="evenodd" d="M45.1164 46.426C44.9794 46.9716 45.299 47.5279 45.8302 47.6686L50.4241 48.8855C50.9553 49.0262 51.497 48.698 51.634 48.1524C51.771 47.6068 51.4514 47.0505 50.9202 46.9098L46.3263 45.693C45.7951 45.5523 45.2534 45.8805 45.1164 46.426Z" fill="#8D969E"/>
<path fill-rule="evenodd" clip-rule="evenodd" d="M43.6685 49.5484C43.2008 49.8429 43.0543 50.4711 43.3411 50.9513L45.8215 55.1048C46.1084 55.585 46.72 55.7356 47.1876 55.441C47.6552 55.1464 47.8018 54.5183 47.515 54.038L45.0345 49.8846C44.7477 49.4043 44.1361 49.2538 43.6685 49.5484Z" fill="#8D969E"/>
<path d="M17.438 60.4569L28.5921 60.4569L28.592 72.1699L27.019 72.1699L27.019 61.8479L18.933 61.8479L18.933 72.1699L17.438 72.1699L17.438 60.4569ZM18.361 70.3369L27.864 70.3369L27.864 71.7019L18.361 71.7019L18.361 70.3369ZM21.156 67.5289L21.78 66.6449C22.144 66.7142 22.5254 66.8052 22.924 66.9179C23.3314 67.0219 23.717 67.1345 24.081 67.2559C24.4537 67.3772 24.77 67.4985 25.03 67.6199L24.393 68.5819C24.1417 68.4605 23.8297 68.3349 23.457 68.2049C23.0844 68.0662 22.6987 67.9362 22.3 67.8149C21.9014 67.6935 21.52 67.5982 21.156 67.5289ZM21.78 61.8089L23.054 62.2509C22.8027 62.6322 22.508 63.0092 22.17 63.3819C21.832 63.7459 21.4767 64.0882 21.104 64.4089C20.7314 64.7295 20.3674 65.0112 20.012 65.2539C19.9427 65.1585 19.843 65.0545 19.713 64.9419C19.5917 64.8292 19.466 64.7165 19.336 64.6039C19.206 64.4825 19.089 64.3872 18.985 64.3179C19.5224 64.0145 20.0424 63.6419 20.545 63.1999C21.0564 62.7492 21.468 62.2855 21.78 61.8089ZM25.225 62.8489L25.472 62.8489L25.693 62.7839L26.564 63.3039C26.226 63.8325 25.7927 64.3222 25.264 64.7729C24.744 65.2149 24.1677 65.6135 23.535 65.9689C22.9024 66.3155 22.2394 66.6189 21.546 66.8789C20.8614 67.1389 20.1767 67.3512 19.492 67.5159C19.4487 67.3945 19.3837 67.2559 19.297 67.0999C19.219 66.9352 19.1324 66.7792 19.037 66.6319C18.9504 66.4759 18.8637 66.3502 18.777 66.2549C19.427 66.1335 20.077 65.9689 20.727 65.7609C21.3857 65.5529 22.0054 65.3102 22.586 65.0329C23.1754 64.7555 23.6954 64.4479 24.146 64.1099C24.6054 63.7719 24.965 63.4122 25.225 63.0309L25.225 62.8489ZM21.533 63.7459C21.9144 64.1359 22.404 64.4912 23.002 64.8119C23.6 65.1325 24.2587 65.4099 24.978 65.6439C25.706 65.8779 26.4427 66.0599 27.188 66.1899C27.0494 66.3285 26.8934 66.5149 26.72 66.7489C26.5554 66.9742 26.4254 67.1735 26.33 67.3469C25.5674 67.1822 24.8177 66.9525 24.081 66.6579C23.3444 66.3632 22.6597 66.0122 22.027 65.6049C21.3944 65.1975 20.8527 64.7512 20.402 64.2659L21.533 63.7459ZM21.832 62.8489L25.667 62.8489L25.667 63.9929L21.039 63.9929L21.832 62.8489ZM19.96 69.1929L20.662 68.1789C21.104 68.2222 21.5634 68.2872 22.04 68.3739C22.5254 68.4519 23.0064 68.5429 23.483 68.6469C23.9597 68.7422 24.4104 68.8462 24.835 68.9589C25.2597 69.0715 25.641 69.1799 25.979 69.2839L25.29 70.3889C24.8654 70.2329 24.3497 70.0769 23.743 69.9209C23.145 69.7562 22.5167 69.6132 21.858 69.4919C21.1994 69.3619 20.5667 69.2622 19.96 69.1929ZM32.908 60.0019L34.338 60.4309C34.065 61.2629 33.727 62.1209 33.35 62.9529L33.35 72.1179L31.881 72.1179L31.881 65.6179C31.621 66.0079 31.348 66.3719 31.075 66.6839C30.958 66.3199 30.581 65.4229 30.334 65.0199C31.374 63.8109 32.336 61.9129 32.908 60.0019ZM35.885 63.6419L35.885 64.6299L37.562 64.6299L37.562 63.6419L35.885 63.6419ZM38.485 61.8999L36.522 61.8999C36.34 62.1339 36.158 62.3679 35.963 62.5889L37.978 62.5889C38.147 62.3939 38.329 62.1469 38.485 61.8999ZM40.799 64.6299L40.799 63.6419L38.94 63.6419L38.94 64.6299L40.799 64.6299ZM37.744 70.6099C37.926 70.4409 38.043 70.0899 38.056 69.6479C37.497 70.0509 36.873 70.4669 36.236 70.8179C36.574 70.8569 36.873 70.8699 37.107 70.8699C37.367 70.8699 37.575 70.8179 37.744 70.6099ZM41.683 65.9299L42.723 66.8529C42.164 67.3469 41.488 67.8669 40.929 68.2309C41.423 69.1539 42.06 69.9209 42.892 70.4019C42.554 70.6749 42.112 71.2339 41.904 71.6109C40.175 70.4409 39.239 68.2959 38.693 65.6699L38.433 65.6699C38.212 65.8519 37.965 66.0339 37.705 66.2029C39.798 67.9839 39.759 70.7529 38.771 71.6109C38.368 72.0009 37.965 72.1179 37.393 72.1439C37.133 72.1439 36.808 72.1309 36.483 72.1049C36.457 71.7539 36.366 71.2469 36.158 70.8569C35.586 71.1819 35.014 71.4549 34.481 71.6759C34.299 71.3509 33.961 70.8699 33.662 70.5839C35.053 70.1679 36.743 69.2709 37.796 68.3869C37.731 68.2309 37.653 68.0879 37.575 67.9319C36.665 68.5559 35.534 69.1669 34.585 69.5439C34.429 69.2579 34.13 68.8289 33.883 68.5819C34.871 68.2959 36.119 67.7239 36.977 67.1389C36.886 67.0349 36.782 66.9309 36.665 66.8269C36.002 67.2039 35.3 67.5159 34.65 67.7499C34.455 67.5029 34.052 66.9829 33.792 66.7489C34.702 66.4889 35.651 66.1249 36.47 65.6699L34.494 65.6699L34.494 63.6549C34.221 63.3949 33.831 63.1089 33.545 62.9659C34.767 62.1079 35.651 60.9639 36.132 60.0019L37.588 60.2619C37.497 60.4309 37.393 60.6129 37.289 60.7819L39.291 60.7819L39.564 60.6909L40.474 61.3409C40.227 61.7439 39.928 62.1859 39.616 62.5889L42.281 62.5889L42.281 65.6699L40.006 65.6699C40.123 66.1639 40.253 66.6449 40.422 67.0999C40.877 66.7229 41.358 66.2809 41.683 65.9299ZM44.101 66.8269C44.4824 66.7402 44.9114 66.6405 45.388 66.5279C45.8734 66.4065 46.3804 66.2765 46.909 66.1379C47.4464 65.9905 47.975 65.8389 48.495 65.6829L48.69 67.0869C47.9447 67.3035 47.1907 67.5245 46.428 67.7499C45.6654 67.9665 44.9677 68.1615 44.335 68.3349L44.101 66.8269ZM44.27 62.4199L48.56 62.4199L48.56 63.8499L44.27 63.8499L44.27 62.4199ZM45.674 59.9629L47.221 59.9629L47.221 70.2979C47.221 70.6792 47.182 70.9825 47.104 71.2079C47.026 71.4419 46.883 71.6239 46.675 71.7539C46.4584 71.8839 46.194 71.9705 45.882 72.0139C45.57 72.0572 45.1887 72.0745 44.738 72.0659C44.7207 71.8579 44.6687 71.5979 44.582 71.2859C44.4954 70.9825 44.4044 70.7225 44.309 70.5059C44.543 70.5145 44.7684 70.5189 44.985 70.5189C45.2104 70.5189 45.3664 70.5189 45.453 70.5189C45.5397 70.5189 45.596 70.5015 45.622 70.4669C45.6567 70.4322 45.674 70.3715 45.674 70.2849L45.674 59.9629ZM50.874 61.5619L50.874 62.7579L53.643 62.7579L53.643 61.5619L50.874 61.5619ZM49.34 60.4439L55.255 60.4439L55.255 63.8759L49.34 63.8759L49.34 60.4439ZM51.537 66.5539L53.071 66.5539L53.071 67.9059C53.071 68.2612 53.0147 68.6296 52.902 69.0109C52.7894 69.3922 52.577 69.7692 52.265 70.1419C51.9617 70.5146 51.5197 70.8699 50.939 71.2079C50.3584 71.5459 49.6 71.8492 48.664 72.1179C48.5687 71.9359 48.4257 71.7106 48.235 71.4419C48.053 71.1819 47.8754 70.9739 47.702 70.8179C48.5687 70.6186 49.2577 70.3976 49.769 70.1549C50.289 69.9036 50.6747 69.6479 50.926 69.3879C51.1774 69.1192 51.342 68.8549 51.42 68.5949C51.498 68.3349 51.537 68.0922 51.537 67.8669L51.537 66.5539ZM52.772 70.2459L53.682 69.2449C53.9767 69.4269 54.3017 69.6306 54.657 69.8559C55.021 70.0812 55.372 70.3022 55.71 70.5189C56.048 70.7356 56.321 70.9306 56.529 71.1039L55.58 72.2349C55.372 72.0616 55.1034 71.8579 54.774 71.6239C54.4534 71.3899 54.111 71.1516 53.747 70.9089C53.3917 70.6662 53.0667 70.4452 52.772 70.2459ZM48.976 64.5779L55.645 64.5779L55.645 69.3099L54.111 69.3099L54.111 65.7869L50.458 65.7869L50.458 69.3879L48.976 69.3879L48.976 64.5779ZM60.91 67.7759L62.158 67.3599L62.444 68.7899C61.014 69.3359 59.493 69.9079 58.271 70.3369L57.777 68.7639C58.258 68.6339 58.83 68.4519 59.454 68.2569L59.454 64.5389L58.063 64.5389L58.063 63.0829L59.454 63.0829L59.454 60.1839L60.91 60.1839L60.91 63.0829L62.08 63.0829L62.08 64.5389L60.91 64.5389L60.91 67.7759ZM66.604 64.5649L67.267 63.9149C68.242 64.6819 69.594 65.7869 70.244 66.5019L69.139 67.6329C68.619 66.9699 67.527 65.9689 66.604 65.2019L66.604 72.1179L65.057 72.1179L65.057 65.6049C64.29 66.3979 63.445 67.0609 62.548 67.5809C62.301 67.2429 61.742 66.5799 61.417 66.2939C63.185 65.4099 64.719 63.9539 65.655 62.1729L62.028 62.1729L62.028 60.7039L69.919 60.7039L69.919 62.1729L67.436 62.1729C67.202 62.6929 66.916 63.1999 66.604 63.6679L66.604 64.5649Z" fill="#8D969E"/>
</svg>
