<svg width="147" height="128" viewBox="0 0 147 128" fill="none" xmlns="http://www.w3.org/2000/svg">
<path d="M45.0129 28.7354H43.2863C43.2371 28.4523 43.1463 28.2015 43.014 27.983C42.8816 27.7614 42.717 27.5736 42.52 27.4197C42.323 27.2659 42.0984 27.1504 41.846 27.0735C41.5967 26.9935 41.3274 26.9535 41.0381 26.9535C40.5242 26.9535 40.0687 27.0827 39.6716 27.3413C39.2746 27.5967 38.9638 27.9722 38.7391 28.4677C38.5144 28.9601 38.4021 29.5618 38.4021 30.2727C38.4021 30.996 38.5144 31.6054 38.7391 32.1009C38.9669 32.5933 39.2777 32.9657 39.6716 33.218C40.0687 33.4673 40.5226 33.592 41.0335 33.592C41.3166 33.592 41.5813 33.555 41.8275 33.4812C42.0768 33.4042 42.3 33.2919 42.4969 33.1442C42.697 32.9964 42.8647 32.8149 43.0001 32.5994C43.1386 32.384 43.234 32.1378 43.2863 31.8608L45.0129 31.87C44.9483 32.3194 44.8082 32.741 44.5928 33.1349C44.3804 33.5289 44.1019 33.8767 43.7572 34.1783C43.4125 34.4768 43.0094 34.7107 42.5477 34.88C42.0861 35.0462 41.5736 35.1293 41.0104 35.1293C40.1795 35.1293 39.4377 34.9369 38.7853 34.5522C38.1328 34.1675 37.6188 33.612 37.2434 32.8857C36.8679 32.1593 36.6802 31.2884 36.6802 30.2727C36.6802 29.254 36.8694 28.383 37.248 27.6598C37.6265 26.9335 38.142 26.378 38.7945 25.9933C39.447 25.6085 40.1856 25.4162 41.0104 25.4162C41.5367 25.4162 42.026 25.4901 42.4785 25.6378C42.9309 25.7855 43.334 26.0025 43.688 26.2887C44.0419 26.5719 44.3327 26.9196 44.5605 27.332C44.7913 27.7414 44.9421 28.2092 45.0129 28.7354ZM47.2314 35V25.5455H53.3805V26.9812H48.9441V29.5479H53.062V30.9837H48.9441V33.5643H53.4174V35H47.2314ZM63.5474 25.5455V35H62.0239L57.569 28.56H57.4906V35H55.7778V25.5455H57.3105L61.7608 31.9901H61.8439V25.5455H63.5474ZM71.2017 28.1445C71.1586 27.7414 70.9771 27.4274 70.657 27.2028C70.34 26.9781 69.9276 26.8658 69.4198 26.8658C69.0628 26.8658 68.7565 26.9196 68.5011 27.0273C68.2456 27.1351 68.0502 27.2812 67.9148 27.4659C67.7794 27.6506 67.7101 27.8614 67.707 28.0984C67.707 28.2953 67.7517 28.4661 67.8409 28.6108C67.9333 28.7554 68.0579 28.8786 68.2149 28.9801C68.3718 29.0786 68.5457 29.1617 68.7365 29.2294C68.9273 29.2971 69.1197 29.354 69.3136 29.4002L70.1999 29.6218C70.557 29.7049 70.9001 29.8172 71.2294 29.9588C71.5618 30.1004 71.8588 30.2789 72.1204 30.4943C72.3851 30.7098 72.5944 30.9698 72.7482 31.2745C72.9021 31.5792 72.9791 31.9362 72.9791 32.3455C72.9791 32.8995 72.8375 33.3873 72.5543 33.8089C72.2712 34.2275 71.8619 34.5553 71.3264 34.7923C70.7939 35.0262 70.1492 35.1431 69.3921 35.1431C68.6565 35.1431 68.0179 35.0292 67.4762 34.8015C66.9376 34.5737 66.516 34.2414 66.2113 33.8043C65.9097 33.3673 65.7466 32.8349 65.722 32.207H67.407C67.4316 32.5363 67.5332 32.8103 67.7117 33.0288C67.8902 33.2473 68.1225 33.4104 68.4088 33.5181C68.6981 33.6258 69.0212 33.6797 69.3782 33.6797C69.7506 33.6797 70.0768 33.6243 70.3569 33.5135C70.6401 33.3996 70.8616 33.2427 71.0217 33.0426C71.1817 32.8395 71.2633 32.6025 71.2664 32.3317C71.2633 32.0855 71.191 31.8823 71.0494 31.7223C70.9078 31.5592 70.7093 31.4238 70.4539 31.3161C70.2015 31.2053 69.906 31.1068 69.5675 31.0206L68.4918 30.7436C67.7132 30.5436 67.0977 30.2404 66.6453 29.8342C66.1959 29.4248 65.9713 28.8816 65.9713 28.2045C65.9713 27.6475 66.1221 27.1597 66.4237 26.7411C66.7284 26.3226 67.1423 25.9979 67.6655 25.767C68.1887 25.5331 68.7811 25.4162 69.4428 25.4162C70.1138 25.4162 70.7016 25.5331 71.2063 25.767C71.7142 25.9979 72.1127 26.3195 72.402 26.7319C72.6913 27.1412 72.8406 27.6121 72.8498 28.1445H71.2017ZM83.6041 30.2727C83.6041 31.2914 83.4133 32.1639 83.0317 32.8903C82.6531 33.6135 82.1361 34.1675 81.4805 34.5522C80.8281 34.9369 80.0879 35.1293 79.26 35.1293C78.4321 35.1293 77.6904 34.9369 77.0349 34.5522C76.3824 34.1644 75.8654 33.6089 75.4837 32.8857C75.1052 32.1593 74.9159 31.2884 74.9159 30.2727C74.9159 29.254 75.1052 28.383 75.4837 27.6598C75.8654 26.9335 76.3824 26.378 77.0349 25.9933C77.6904 25.6085 78.4321 25.4162 79.26 25.4162C80.0879 25.4162 80.8281 25.6085 81.4805 25.9933C82.1361 26.378 82.6531 26.9335 83.0317 27.6598C83.4133 28.383 83.6041 29.254 83.6041 30.2727ZM81.8822 30.2727C81.8822 29.5556 81.7698 28.9509 81.5452 28.4585C81.3236 27.9629 81.0158 27.589 80.6219 27.3366C80.2279 27.0812 79.774 26.9535 79.26 26.9535C78.746 26.9535 78.2921 27.0812 77.8982 27.3366C77.5042 27.589 77.1949 27.9629 76.9702 28.4585C76.7486 28.9509 76.6379 29.5556 76.6379 30.2727C76.6379 30.9898 76.7486 31.5961 76.9702 32.0916C77.1949 32.584 77.5042 32.958 77.8982 33.2134C78.2921 33.4658 78.746 33.592 79.26 33.592C79.774 33.592 80.2279 33.4658 80.6219 33.2134C81.0158 32.958 81.3236 32.584 81.5452 32.0916C81.7698 31.5961 81.8822 30.9898 81.8822 30.2727ZM85.8733 35V25.5455H89.4188C90.1451 25.5455 90.7545 25.6716 91.2469 25.924C91.7424 26.1764 92.1164 26.5303 92.3687 26.9858C92.6242 27.4382 92.7519 27.966 92.7519 28.5692C92.7519 29.1755 92.6226 29.7018 92.3641 30.1481C92.1087 30.5913 91.7317 30.9344 91.2331 31.1776C90.7345 31.4176 90.122 31.5376 89.3957 31.5376H86.8705V30.1158H89.1649C89.5896 30.1158 89.9374 30.0573 90.2082 29.9403C90.4791 29.8203 90.6791 29.6464 90.8084 29.4187C90.9407 29.1879 91.0069 28.9047 91.0069 28.5692C91.0069 28.2338 90.9407 27.9476 90.8084 27.7106C90.676 27.4705 90.4744 27.2889 90.2036 27.1658C89.9328 27.0397 89.5835 26.9766 89.1557 26.9766H87.5861V35H85.8733ZM90.7576 30.7159L93.0981 35H91.1869L88.8879 30.7159H90.7576ZM94.9784 35V25.5455H101.128V26.9812H96.6911V29.5479H100.809V30.9837H96.6911V33.5643H101.165V35H94.9784ZM106.729 35H103.525V25.5455H106.793C107.732 25.5455 108.538 25.7347 109.212 26.1133C109.889 26.4888 110.41 27.0289 110.773 27.7337C111.136 28.4384 111.318 29.2817 111.318 30.2635C111.318 31.2483 111.134 32.0947 110.768 32.8026C110.405 33.5104 109.88 34.0536 109.194 34.4322C108.511 34.8107 107.689 35 106.729 35ZM105.238 33.5181H106.646C107.304 33.5181 107.854 33.3981 108.294 33.158C108.734 32.9149 109.065 32.5533 109.286 32.0732C109.508 31.59 109.619 30.9867 109.619 30.2635C109.619 29.5402 109.508 28.9401 109.286 28.4631C109.065 27.983 108.737 27.6244 108.303 27.3874C107.872 27.1474 107.337 27.0273 106.696 27.0273H105.238V33.5181Z" fill="#8D969E"/>
<mask id="mask0_4857_53964" style="mask-type:alpha" maskUnits="userSpaceOnUse" x="52" y="40" width="44" height="44">
<rect x="52" y="40" width="44" height="44" fill="#D9D9D9"/>
</mask>
<g mask="url(#mask0_4857_53964)">
<path d="M79.2743 55.809C80.0193 56.5542 80.5951 57.4597 81.0018 58.5255C81.4085 59.5916 81.5623 60.6616 81.4633 61.7357C81.4633 62.0883 81.3365 62.3868 81.0829 62.6312C80.829 62.8757 80.5257 62.9979 80.1731 62.9979C79.8205 62.9979 79.522 62.8757 79.2775 62.6312C79.0331 62.3868 78.9109 62.0883 78.9109 61.7357C79.0285 60.9296 78.9622 60.1657 78.712 59.444C78.4617 58.7226 78.0769 58.1022 77.5574 57.5827C77.038 57.0633 76.4116 56.6689 75.6782 56.3997C74.9449 56.1306 74.1716 56.0606 73.3582 56.1898C73.0056 56.2017 72.7012 56.0837 72.4452 55.8355C72.1888 55.5877 72.0548 55.2875 72.0432 54.9349C72.0313 54.5823 72.1447 54.2778 72.3833 54.0215C72.6219 53.7654 72.9176 53.6316 73.2702 53.62C74.3372 53.4977 75.4095 53.6369 76.4872 54.0375C77.5649 54.4384 78.4939 55.0289 79.2743 55.809ZM73.9998 51.0001C73.3487 51.0001 72.7099 51.0319 72.0835 51.0955C71.4572 51.1587 70.8337 51.2632 70.2131 51.409C69.8229 51.489 69.4715 51.4332 69.1589 51.2417C68.8463 51.0501 68.6314 50.7745 68.514 50.4148C68.3964 50.0436 68.4352 49.6905 68.6305 49.3556C68.8254 49.0207 69.1085 48.8133 69.4797 48.7332C70.218 48.5569 70.9637 48.4324 71.7169 48.3597C72.4704 48.2866 73.2314 48.2501 73.9998 48.2501C77.9391 48.2501 81.5576 49.2737 84.8555 51.321C88.153 53.3682 90.689 56.1382 92.4633 59.631C92.5856 59.8635 92.6743 60.0979 92.7296 60.3341C92.7849 60.5703 92.8126 60.8201 92.8126 61.0835C92.8126 61.3468 92.7897 61.5966 92.7438 61.8328C92.698 62.069 92.614 62.3034 92.4918 62.5359C91.9301 63.7111 91.2474 64.807 90.4435 65.8235C89.6395 66.8401 88.7545 67.7739 87.7883 68.6249C87.5042 68.8788 87.1794 68.9839 86.8139 68.9402C86.4482 68.8968 86.1478 68.7141 85.9128 68.392C85.6779 68.07 85.5804 67.7246 85.6204 67.3557C85.6604 66.9866 85.8225 66.6751 86.1067 66.4212C86.9342 65.6714 87.6887 64.8517 88.3704 63.9622C89.0521 63.0725 89.6397 62.1129 90.1332 61.0835C88.6054 57.9973 86.3978 55.5453 83.5103 53.7272C80.6227 51.9092 77.4526 51.0001 73.9998 51.0001ZM73.9998 73.9168C70.1404 73.9168 66.6029 72.8855 63.3876 70.823C60.1722 68.7605 57.6162 66.044 55.7197 62.6734C55.5669 62.4409 55.4552 62.1882 55.3846 61.9153C55.314 61.6428 55.2787 61.3655 55.2787 61.0835C55.2787 60.8014 55.3093 60.5287 55.3704 60.2653C55.4315 60.0022 55.5385 59.745 55.6912 59.4935C56.3729 58.2477 57.1451 57.0613 58.0077 55.9341C58.8702 54.8072 59.8621 53.7972 60.9832 52.904L56.844 48.7364C56.5903 48.4639 56.4652 48.1401 56.4686 47.7652C56.4722 47.3903 56.6068 47.0701 56.8724 46.8045C57.1379 46.539 57.46 46.4062 57.8385 46.4062C58.2168 46.4062 58.5387 46.539 58.8042 46.8045L89.1954 77.1957C89.4493 77.4496 89.5839 77.7639 89.5992 78.1385C89.6145 78.5134 89.4799 78.8431 89.1954 79.1276C88.9299 79.3931 88.6078 79.5259 88.2293 79.5259C87.851 79.5259 87.5291 79.3931 87.2635 79.1276L80.8116 72.732C79.7302 73.1503 78.6189 73.4523 77.4777 73.6381C76.3367 73.8239 75.1774 73.9168 73.9998 73.9168ZM62.9155 54.8359C61.8412 55.6658 60.8756 56.6042 60.0188 57.651C59.1621 58.6981 58.4446 59.8423 57.8665 61.0835C59.3943 64.1696 61.6019 66.6217 64.4894 68.4397C67.3769 70.2578 70.5471 71.1668 73.9998 71.1668C74.7872 71.1668 75.5623 71.1139 76.325 71.0082C77.0876 70.9025 77.8451 70.7392 78.5974 70.5182L76.2773 68.1418C75.906 68.304 75.5352 68.4139 75.1649 68.4713C74.7949 68.5291 74.4065 68.558 73.9998 68.558C71.9196 68.558 70.1538 67.8323 68.7024 66.3809C67.251 64.9295 66.5253 63.1637 66.5253 61.0835C66.5253 60.6768 66.5571 60.2884 66.6207 59.9184C66.6842 59.548 66.7912 59.1772 66.9415 58.806L62.9155 54.8359Z" fill="#484E55"/>
</g>
<path d="M62.846 89.302L64.029 89.302L64.029 96.92L62.846 96.92L62.846 89.302ZM64.718 88.171L66.031 88.171L66.031 98.558C66.031 98.922 65.9877 99.208 65.901 99.416C65.823 99.624 65.6757 99.78 65.459 99.884C65.251 99.9967 64.9823 100.07 64.653 100.105C64.3237 100.148 63.925 100.166 63.457 100.157C63.431 99.975 63.379 99.7497 63.301 99.481C63.223 99.2123 63.1363 98.9827 63.041 98.792C63.353 98.8007 63.639 98.805 63.899 98.805C64.1677 98.805 64.3497 98.805 64.445 98.805C64.549 98.805 64.6183 98.7877 64.653 98.753C64.6963 98.7097 64.718 98.6403 64.718 98.545L64.718 88.171ZM55.553 88.392L57.893 88.392L57.893 89.744L55.553 89.744L55.553 88.392ZM55.033 88.392L56.294 88.392L56.294 94.944C56.294 95.5247 56.2723 96.1443 56.229 96.803C56.1857 97.453 56.0947 98.0813 55.956 98.688C55.826 99.2947 55.618 99.819 55.332 100.261C55.2627 100.183 55.1587 100.092 55.02 99.988C54.89 99.8927 54.7557 99.7973 54.617 99.702C54.4783 99.6153 54.357 99.546 54.253 99.494C54.5043 99.104 54.682 98.6577 54.786 98.155C54.8987 97.6437 54.968 97.115 54.994 96.569C55.02 96.0143 55.033 95.477 55.033 94.957L55.033 88.392ZM56.996 88.392L58.257 88.392L58.257 98.519C58.257 98.8223 58.2267 99.0737 58.166 99.273C58.1053 99.4723 57.984 99.6327 57.802 99.754C57.6373 99.8667 57.4337 99.9403 57.191 99.975C56.9483 100.01 56.6493 100.027 56.294 100.027C56.2853 99.8363 56.2463 99.6067 56.177 99.338C56.1077 99.078 56.0297 98.857 55.943 98.675C56.1337 98.6837 56.3113 98.6923 56.476 98.701C56.6493 98.701 56.7663 98.701 56.827 98.701C56.8877 98.701 56.931 98.688 56.957 98.662C56.983 98.6273 56.996 98.5753 56.996 98.506L56.996 88.392ZM59.31 88.392L61.637 88.392L61.637 89.731L59.31 89.731L59.31 88.392ZM58.816 88.392L60.064 88.392L60.064 93.488C60.064 93.9907 60.0553 94.5367 60.038 95.126C60.0207 95.7067 59.9817 96.3047 59.921 96.92C59.869 97.5267 59.7867 98.116 59.674 98.688C59.57 99.2513 59.4313 99.7627 59.258 100.222C59.18 100.144 59.0717 100.062 58.933 99.975C58.7943 99.897 58.6513 99.819 58.504 99.741C58.3653 99.663 58.244 99.6067 58.14 99.572C58.296 99.1387 58.4217 98.6707 58.517 98.168C58.6123 97.6567 58.6817 97.1323 58.725 96.595C58.7683 96.049 58.7943 95.5117 58.803 94.983C58.8117 94.4543 58.816 93.9603 58.816 93.501L58.816 88.392ZM60.766 88.392L62.027 88.392L62.027 98.519C62.027 98.8223 61.9967 99.0737 61.936 99.273C61.884 99.4723 61.767 99.6283 61.585 99.741C61.4117 99.8537 61.2037 99.9273 60.961 99.962C60.7183 99.9967 60.4193 100.014 60.064 100.014C60.0553 99.8233 60.0163 99.598 59.947 99.338C59.8777 99.078 59.804 98.857 59.726 98.675C59.908 98.6837 60.0813 98.688 60.246 98.688C60.4193 98.688 60.5363 98.688 60.597 98.688C60.6577 98.688 60.701 98.675 60.727 98.649C60.753 98.6143 60.766 98.5623 60.766 98.493L60.766 88.392ZM54.318 92.929L62.521 92.929L62.521 94.333L54.318 94.333L54.318 92.929ZM71.14 90.706L70.022 91.72C69.71 91.122 68.943 90.251 68.267 89.653L69.307 88.743C69.996 89.302 70.789 90.121 71.14 90.706ZM69.84 93.41L70.971 94.307C70.451 95.724 69.775 97.297 69.151 98.61L67.851 97.713C68.423 96.686 69.229 94.97 69.84 93.41ZM74.975 96.413L74.975 95.139L74.078 95.139L74.078 96.413L74.975 96.413ZM78.446 92.565L79.798 92.851C79.382 94.385 78.81 95.724 78.082 96.881C78.29 98.051 78.563 98.649 78.81 98.649C79.005 98.649 79.135 98.168 79.187 96.725C79.46 97.024 79.876 97.362 80.214 97.492C80.045 99.741 79.642 100.118 78.654 100.131C77.926 100.131 77.393 99.481 77.016 98.285C76.366 99 75.638 99.611 74.806 100.118C74.611 99.845 74.091 99.338 73.779 99.104C74.572 98.688 75.261 98.168 75.872 97.544L74.078 97.544L74.078 98.051L73.129 98.051L73.129 94.021L75.937 94.021L75.937 97.479C76.184 97.206 76.418 96.933 76.639 96.634C76.405 95.269 76.275 93.54 76.197 91.512L72.7 91.512L72.7 93.215C72.7 95.204 72.492 98.129 71.179 100.014C70.932 99.78 70.347 99.403 70.022 99.273C71.231 97.505 71.361 94.996 71.361 93.202L71.361 90.121L76.158 90.121C76.132 89.445 76.132 88.73 76.119 88.002L77.601 88.002C77.588 88.743 77.588 89.458 77.588 90.121L78.979 90.121C78.706 89.718 78.121 89.185 77.614 88.795L78.524 88.08C79.057 88.444 79.694 88.99 79.993 89.38L79.083 90.121L79.876 90.121L79.876 91.512L77.614 91.512C77.64 92.682 77.705 93.709 77.783 94.593C78.043 93.969 78.264 93.293 78.446 92.565ZM75.95 92.201L75.95 93.332L73.064 93.332L73.064 92.201L75.95 92.201ZM91.732 93.267L89.834 93.267C90.094 94.177 90.419 95.022 90.848 95.802C91.225 95.035 91.537 94.177 91.732 93.267ZM92.46 91.824L93.422 92.11C93.136 94.151 92.59 95.841 91.797 97.206C92.395 97.908 93.084 98.48 93.903 98.883C93.552 99.169 93.084 99.754 92.85 100.144C92.096 99.715 91.459 99.156 90.9 98.493C90.367 99.13 89.756 99.663 89.067 100.105C88.872 99.728 88.417 99.143 88.092 98.857C88.807 98.454 89.444 97.882 89.99 97.167C89.483 96.283 89.08 95.282 88.755 94.19C88.651 96.166 88.339 98.467 87.507 100.092C87.247 99.858 86.649 99.52 86.285 99.364L86.285 100.092L84.881 100.092L84.881 95.581L83.646 95.581C83.529 97.245 83.217 98.922 82.437 100.144C82.203 99.858 81.709 99.416 81.397 99.208C82.242 97.648 82.346 95.178 82.346 93.306L82.346 88.327L83.711 88.327L83.711 91.408L84.647 91.408L84.647 87.989L86.038 87.989L86.038 91.408L86.948 91.408L86.948 92.773L83.711 92.773L83.711 93.319C83.711 93.605 83.711 93.917 83.698 94.216L86.285 94.216L86.285 99.247C87.286 97.219 87.364 94.359 87.364 92.331L87.364 88.548L93.409 88.548L93.409 89.939L88.794 89.939L88.794 91.863L92.2 91.863L92.46 91.824Z" fill="#E81717"/>
</svg>
