<svg width="86" height="84" viewBox="0 0 86 84" fill="none" xmlns="http://www.w3.org/2000/svg">
<path d="M14.0129 8.73544H12.2863C12.2371 8.4523 12.1463 8.20147 12.014 7.98295C11.8816 7.76136 11.717 7.57363 11.52 7.41974C11.323 7.26586 11.0984 7.15045 10.846 7.07351C10.5967 6.99349 10.3274 6.95348 10.0381 6.95348C9.52415 6.95348 9.06866 7.08274 8.67164 7.34126C8.27463 7.59671 7.96378 7.97218 7.73911 8.46768C7.51445 8.96011 7.40211 9.56179 7.40211 10.2727C7.40211 10.996 7.51445 11.6054 7.73911 12.1009C7.96686 12.5933 8.2777 12.9657 8.67164 13.218C9.06866 13.4673 9.52261 13.592 10.0335 13.592C10.3166 13.592 10.5813 13.555 10.8275 13.4812C11.0768 13.4042 11.3 13.2919 11.4969 13.1442C11.697 12.9964 11.8647 12.8149 12.0001 12.5994C12.1386 12.384 12.234 12.1378 12.2863 11.8608L14.0129 11.87C13.9483 12.3194 13.8082 12.741 13.5928 13.1349C13.3804 13.5289 13.1019 13.8767 12.7572 14.1783C12.4125 14.4768 12.0094 14.7107 11.5477 14.88C11.0861 15.0462 10.5736 15.1293 10.0104 15.1293C9.17946 15.1293 8.43774 14.9369 7.78528 14.5522C7.13282 14.1675 6.61885 13.612 6.24338 12.8857C5.8679 12.1593 5.68017 11.2884 5.68017 10.2727C5.68017 9.25402 5.86944 8.38305 6.24799 7.6598C6.62654 6.93348 7.14205 6.37796 7.79451 5.99325C8.44697 5.60855 9.18561 5.41619 10.0104 5.41619C10.5367 5.41619 11.026 5.49006 11.4785 5.63778C11.9309 5.78551 12.334 6.00249 12.688 6.28871C13.0419 6.57185 13.3327 6.91963 13.5605 7.33203C13.7913 7.74136 13.9421 8.20916 14.0129 8.73544ZM16.2314 15V5.54545H22.3805V6.98118H17.9441V9.54794H22.062V10.9837H17.9441V13.5643H22.4174V15H16.2314ZM32.5474 5.54545V15H31.0239L26.569 8.56001H26.4906V15H24.7778V5.54545H26.3105L30.7608 11.9901H30.8439V5.54545H32.5474ZM40.2017 8.14453C40.1586 7.74136 39.9771 7.42744 39.657 7.20277C39.34 6.9781 38.9276 6.86577 38.4198 6.86577C38.0628 6.86577 37.7565 6.91963 37.5011 7.02734C37.2456 7.13506 37.0502 7.28125 36.9148 7.46591C36.7794 7.65057 36.7101 7.86139 36.707 8.09837C36.707 8.29534 36.7517 8.46615 36.8409 8.6108C36.9333 8.75544 37.0579 8.87855 37.2149 8.98011C37.3718 9.0786 37.5457 9.16169 37.7365 9.2294C37.9273 9.29711 38.1197 9.35405 38.3136 9.40021L39.1999 9.6218C39.557 9.7049 39.9001 9.81723 40.2294 9.95881C40.5618 10.1004 40.8588 10.2789 41.1204 10.4943C41.3851 10.7098 41.5944 10.9698 41.7482 11.2745C41.9021 11.5792 41.9791 11.9362 41.9791 12.3455C41.9791 12.8995 41.8375 13.3873 41.5543 13.8089C41.2712 14.2275 40.8619 14.5553 40.3264 14.7923C39.7939 15.0262 39.1492 15.1431 38.3921 15.1431C37.6565 15.1431 37.0179 15.0292 36.4762 14.8015C35.9376 14.5737 35.516 14.2414 35.2113 13.8043C34.9097 13.3673 34.7466 12.8349 34.722 12.207H36.407C36.4316 12.5363 36.5332 12.8103 36.7117 13.0288C36.8902 13.2473 37.1225 13.4104 37.4088 13.5181C37.6981 13.6258 38.0212 13.6797 38.3782 13.6797C38.7506 13.6797 39.0768 13.6243 39.3569 13.5135C39.6401 13.3996 39.8616 13.2427 40.0217 13.0426C40.1817 12.8395 40.2633 12.6025 40.2664 12.3317C40.2633 12.0855 40.191 11.8823 40.0494 11.7223C39.9078 11.5592 39.7093 11.4238 39.4539 11.3161C39.2015 11.2053 38.906 11.1068 38.5675 11.0206L37.4918 10.7436C36.7132 10.5436 36.0977 10.2404 35.6453 9.83416C35.1959 9.42483 34.9713 8.88163 34.9713 8.20454C34.9713 7.64749 35.1221 7.15968 35.4237 6.74112C35.7284 6.32256 36.1423 5.99787 36.6655 5.76704C37.1887 5.53314 37.7811 5.41619 38.4428 5.41619C39.1138 5.41619 39.7016 5.53314 40.2063 5.76704C40.7142 5.99787 41.1127 6.31948 41.402 6.73189C41.6913 7.14122 41.8406 7.6121 41.8498 8.14453H40.2017ZM52.6041 10.2727C52.6041 11.2914 52.4133 12.1639 52.0317 12.8903C51.6531 13.6135 51.1361 14.1675 50.4805 14.5522C49.8281 14.9369 49.0879 15.1293 48.26 15.1293C47.4321 15.1293 46.6904 14.9369 46.0349 14.5522C45.3824 14.1644 44.8654 13.6089 44.4837 12.8857C44.1052 12.1593 43.9159 11.2884 43.9159 10.2727C43.9159 9.25402 44.1052 8.38305 44.4837 7.6598C44.8654 6.93348 45.3824 6.37796 46.0349 5.99325C46.6904 5.60855 47.4321 5.41619 48.26 5.41619C49.0879 5.41619 49.8281 5.60855 50.4805 5.99325C51.1361 6.37796 51.6531 6.93348 52.0317 7.6598C52.4133 8.38305 52.6041 9.25402 52.6041 10.2727ZM50.8822 10.2727C50.8822 9.55563 50.7698 8.95088 50.5452 8.45845C50.3236 7.96295 50.0158 7.58902 49.6219 7.33665C49.2279 7.0812 48.774 6.95348 48.26 6.95348C47.746 6.95348 47.2921 7.0812 46.8982 7.33665C46.5042 7.58902 46.1949 7.96295 45.9702 8.45845C45.7486 8.95088 45.6379 9.55563 45.6379 10.2727C45.6379 10.9898 45.7486 11.5961 45.9702 12.0916C46.1949 12.584 46.5042 12.958 46.8982 13.2134C47.2921 13.4658 47.746 13.592 48.26 13.592C48.774 13.592 49.2279 13.4658 49.6219 13.2134C50.0158 12.958 50.3236 12.584 50.5452 12.0916C50.7698 11.5961 50.8822 10.9898 50.8822 10.2727ZM54.8733 15V5.54545H58.4188C59.1451 5.54545 59.7545 5.67164 60.2469 5.92401C60.7424 6.17637 61.1164 6.5303 61.3687 6.98579C61.6242 7.43821 61.7519 7.96603 61.7519 8.56925C61.7519 9.17554 61.6226 9.70182 61.3641 10.1481C61.1087 10.5913 60.7317 10.9344 60.2331 11.1776C59.7345 11.4176 59.122 11.5376 58.3957 11.5376H55.8705V10.1158H58.1649C58.5896 10.1158 58.9374 10.0573 59.2082 9.94034C59.4791 9.82031 59.6791 9.64642 59.8084 9.41868C59.9407 9.18785 60.0069 8.90471 60.0069 8.56925C60.0069 8.23378 59.9407 7.94756 59.8084 7.71058C59.676 7.47053 59.4744 7.28894 59.2036 7.16584C58.9328 7.03965 58.5835 6.97656 58.1557 6.97656H56.5861V15H54.8733ZM59.7576 10.7159L62.0981 15H60.1869L57.8879 10.7159H59.7576ZM63.9784 15V5.54545H70.1276V6.98118H65.6911V9.54794H69.809V10.9837H65.6911V13.5643H70.1645V15H63.9784ZM75.7287 15H72.5249V5.54545H75.7934C76.7321 5.54545 77.5384 5.73473 78.2124 6.11328C78.8895 6.48875 79.4096 7.02888 79.7728 7.73366C80.1359 8.43845 80.3175 9.28172 80.3175 10.2635C80.3175 11.2483 80.1344 12.0947 79.7682 12.8026C79.405 13.5104 78.8803 14.0536 78.1939 14.4322C77.5107 14.8107 76.689 15 75.7287 15ZM74.2376 13.5181H75.6457C76.3043 13.5181 76.8536 13.3981 77.2937 13.158C77.7338 12.9149 78.0647 12.5533 78.2863 12.0732C78.5079 11.59 78.6187 10.9867 78.6187 10.2635C78.6187 9.54025 78.5079 8.9401 78.2863 8.46307C78.0647 7.98295 77.7369 7.62441 77.303 7.38743C76.8721 7.14737 76.3366 7.02734 75.6964 7.02734H74.2376V13.5181Z" fill="#8D969E"/>
<mask id="mask0_4857_53966" style="mask-type:alpha" maskUnits="userSpaceOnUse" x="21" y="20" width="44" height="44">
<rect x="21" y="20" width="44" height="44" fill="#D9D9D9"/>
</mask>
<g mask="url(#mask0_4857_53966)">
<path d="M48.2743 35.809C49.0193 36.5542 49.5951 37.4597 50.0018 38.5255C50.4085 39.5916 50.5623 40.6616 50.4633 41.7357C50.4633 42.0883 50.3365 42.3868 50.0829 42.6312C49.829 42.8757 49.5257 42.9979 49.1731 42.9979C48.8205 42.9979 48.522 42.8757 48.2775 42.6312C48.0331 42.3868 47.9109 42.0883 47.9109 41.7357C48.0285 40.9296 47.9622 40.1657 47.712 39.444C47.4617 38.7226 47.0769 38.1022 46.5574 37.5827C46.038 37.0633 45.4116 36.6689 44.6782 36.3997C43.9449 36.1306 43.1716 36.0606 42.3582 36.1898C42.0056 36.2017 41.7012 36.0837 41.4452 35.8355C41.1888 35.5877 41.0548 35.2875 41.0432 34.9349C41.0313 34.5823 41.1447 34.2778 41.3833 34.0215C41.6219 33.7654 41.9176 33.6316 42.2702 33.62C43.3372 33.4977 44.4095 33.6369 45.4872 34.0375C46.5649 34.4384 47.4939 35.0289 48.2743 35.809ZM42.9998 31.0001C42.3487 31.0001 41.7099 31.0319 41.0835 31.0955C40.4572 31.1587 39.8337 31.2632 39.2131 31.409C38.8229 31.489 38.4715 31.4332 38.1589 31.2417C37.8463 31.0501 37.6314 30.7745 37.514 30.4148C37.3964 30.0436 37.4352 29.6905 37.6305 29.3556C37.8254 29.0207 38.1085 28.8133 38.4797 28.7332C39.218 28.5569 39.9637 28.4324 40.7169 28.3597C41.4704 28.2866 42.2314 28.2501 42.9998 28.2501C46.9391 28.2501 50.5576 29.2737 53.8555 31.321C57.153 33.3682 59.689 36.1382 61.4633 39.631C61.5856 39.8635 61.6743 40.0979 61.7296 40.3341C61.7849 40.5703 61.8126 40.8201 61.8126 41.0835C61.8126 41.3468 61.7897 41.5966 61.7438 41.8328C61.698 42.069 61.614 42.3034 61.4918 42.5359C60.9301 43.7111 60.2474 44.807 59.4435 45.8235C58.6395 46.8401 57.7545 47.7739 56.7883 48.6249C56.5042 48.8788 56.1794 48.9839 55.8139 48.9402C55.4482 48.8968 55.1478 48.7141 54.9128 48.392C54.6779 48.07 54.5804 47.7246 54.6204 47.3557C54.6604 46.9866 54.8225 46.6751 55.1067 46.4212C55.9342 45.6714 56.6887 44.8517 57.3704 43.9622C58.0521 43.0725 58.6397 42.1129 59.1332 41.0835C57.6054 37.9973 55.3978 35.5453 52.5103 33.7272C49.6227 31.9092 46.4526 31.0001 42.9998 31.0001ZM42.9998 53.9168C39.1404 53.9168 35.6029 52.8855 32.3876 50.823C29.1722 48.7605 26.6162 46.044 24.7197 42.6734C24.5669 42.4409 24.4552 42.1882 24.3846 41.9153C24.314 41.6428 24.2787 41.3655 24.2787 41.0835C24.2787 40.8014 24.3093 40.5287 24.3704 40.2653C24.4315 40.0022 24.5385 39.745 24.6912 39.4935C25.3729 38.2477 26.1451 37.0613 27.0077 35.9341C27.8702 34.8072 28.8621 33.7972 29.9832 32.904L25.844 28.7364C25.5903 28.4639 25.4652 28.1401 25.4686 27.7652C25.4722 27.3903 25.6068 27.0701 25.8724 26.8045C26.1379 26.539 26.46 26.4062 26.8385 26.4062C27.2168 26.4062 27.5387 26.539 27.8042 26.8045L58.1954 57.1957C58.4493 57.4496 58.5839 57.7639 58.5992 58.1385C58.6145 58.5134 58.4799 58.8431 58.1954 59.1276C57.9299 59.3931 57.6078 59.5259 57.2293 59.5259C56.851 59.5259 56.5291 59.3931 56.2635 59.1276L49.8116 52.732C48.7302 53.1503 47.6189 53.4523 46.4777 53.6381C45.3367 53.8239 44.1774 53.9168 42.9998 53.9168ZM31.9155 34.8359C30.8412 35.6658 29.8756 36.6042 29.0188 37.651C28.1621 38.6981 27.4446 39.8423 26.8665 41.0835C28.3943 44.1696 30.6019 46.6217 33.4894 48.4397C36.3769 50.2578 39.5471 51.1668 42.9998 51.1668C43.7872 51.1668 44.5623 51.1139 45.325 51.0082C46.0876 50.9025 46.8451 50.7392 47.5974 50.5182L45.2773 48.1418C44.906 48.304 44.5352 48.4139 44.1649 48.4713C43.7949 48.5291 43.4065 48.558 42.9998 48.558C40.9196 48.558 39.1538 47.8323 37.7024 46.3809C36.251 44.9295 35.5253 43.1637 35.5253 41.0835C35.5253 40.6768 35.5571 40.2884 35.6207 39.9184C35.6842 39.548 35.7912 39.1772 35.9415 38.806L31.9155 34.8359Z" fill="#484E55"/>
</g>
<path d="M31.846 69.302L33.029 69.302L33.029 76.92L31.846 76.92L31.846 69.302ZM33.718 68.171L35.031 68.171L35.031 78.558C35.031 78.922 34.9877 79.208 34.901 79.416C34.823 79.624 34.6757 79.78 34.459 79.884C34.251 79.9967 33.9823 80.0703 33.653 80.105C33.3237 80.1483 32.925 80.1657 32.457 80.157C32.431 79.975 32.379 79.7497 32.301 79.481C32.223 79.2123 32.1363 78.9827 32.041 78.792C32.353 78.8007 32.639 78.805 32.899 78.805C33.1677 78.805 33.3497 78.805 33.445 78.805C33.549 78.805 33.6183 78.7877 33.653 78.753C33.6963 78.7097 33.718 78.6403 33.718 78.545L33.718 68.171ZM24.553 68.392L26.893 68.392L26.893 69.744L24.553 69.744L24.553 68.392ZM24.033 68.392L25.294 68.392L25.294 74.944C25.294 75.5247 25.2723 76.1443 25.229 76.803C25.1857 77.453 25.0947 78.0813 24.956 78.688C24.826 79.2947 24.618 79.819 24.332 80.261C24.2627 80.183 24.1587 80.092 24.02 79.988C23.89 79.8927 23.7557 79.7973 23.617 79.702C23.4783 79.6153 23.357 79.546 23.253 79.494C23.5043 79.104 23.682 78.6577 23.786 78.155C23.8987 77.6437 23.968 77.115 23.994 76.569C24.02 76.0143 24.033 75.477 24.033 74.957L24.033 68.392ZM25.996 68.392L27.257 68.392L27.257 78.519C27.257 78.8223 27.2267 79.0737 27.166 79.273C27.1053 79.4723 26.984 79.6327 26.802 79.754C26.6373 79.8667 26.4337 79.9403 26.191 79.975C25.9483 80.0097 25.6493 80.027 25.294 80.027C25.2853 79.8363 25.2463 79.6067 25.177 79.338C25.1077 79.078 25.0297 78.857 24.943 78.675C25.1337 78.6837 25.3113 78.6923 25.476 78.701C25.6493 78.701 25.7663 78.701 25.827 78.701C25.8877 78.701 25.931 78.688 25.957 78.662C25.983 78.6273 25.996 78.5753 25.996 78.506L25.996 68.392ZM28.31 68.392L30.637 68.392L30.637 69.731L28.31 69.731L28.31 68.392ZM27.816 68.392L29.064 68.392L29.064 73.488C29.064 73.9907 29.0553 74.5367 29.038 75.126C29.0207 75.7067 28.9817 76.3047 28.921 76.92C28.869 77.5267 28.7867 78.116 28.674 78.688C28.57 79.2513 28.4313 79.7627 28.258 80.222C28.18 80.144 28.0717 80.0617 27.933 79.975C27.7943 79.897 27.6513 79.819 27.504 79.741C27.3653 79.663 27.244 79.6067 27.14 79.572C27.296 79.1387 27.4217 78.6707 27.517 78.168C27.6123 77.6567 27.6817 77.1323 27.725 76.595C27.7683 76.049 27.7943 75.5117 27.803 74.983C27.8117 74.4543 27.816 73.9603 27.816 73.501L27.816 68.392ZM29.766 68.392L31.027 68.392L31.027 78.519C31.027 78.8223 30.9967 79.0737 30.936 79.273C30.884 79.4723 30.767 79.6283 30.585 79.741C30.4117 79.8537 30.2037 79.9273 29.961 79.962C29.7183 79.9967 29.4193 80.014 29.064 80.014C29.0553 79.8233 29.0163 79.598 28.947 79.338C28.8777 79.078 28.804 78.857 28.726 78.675C28.908 78.6837 29.0813 78.688 29.246 78.688C29.4193 78.688 29.5363 78.688 29.597 78.688C29.6577 78.688 29.701 78.675 29.727 78.649C29.753 78.6143 29.766 78.5623 29.766 78.493L29.766 68.392ZM23.318 72.929L31.521 72.929L31.521 74.333L23.318 74.333L23.318 72.929ZM40.14 70.706L39.022 71.72C38.71 71.122 37.943 70.251 37.267 69.653L38.307 68.743C38.996 69.302 39.789 70.121 40.14 70.706ZM38.84 73.41L39.971 74.307C39.451 75.724 38.775 77.297 38.151 78.61L36.851 77.713C37.423 76.686 38.229 74.97 38.84 73.41ZM43.975 76.413L43.975 75.139L43.078 75.139L43.078 76.413L43.975 76.413ZM47.446 72.565L48.798 72.851C48.382 74.385 47.81 75.724 47.082 76.881C47.29 78.051 47.563 78.649 47.81 78.649C48.005 78.649 48.135 78.168 48.187 76.725C48.46 77.024 48.876 77.362 49.214 77.492C49.045 79.741 48.642 80.118 47.654 80.131C46.926 80.131 46.393 79.481 46.016 78.285C45.366 79 44.638 79.611 43.806 80.118C43.611 79.845 43.091 79.338 42.779 79.104C43.572 78.688 44.261 78.168 44.872 77.544L43.078 77.544L43.078 78.051L42.129 78.051L42.129 74.021L44.937 74.021L44.937 77.479C45.184 77.206 45.418 76.933 45.639 76.634C45.405 75.269 45.275 73.54 45.197 71.512L41.7 71.512L41.7 73.215C41.7 75.204 41.492 78.129 40.179 80.014C39.932 79.78 39.347 79.403 39.022 79.273C40.231 77.505 40.361 74.996 40.361 73.202L40.361 70.121L45.158 70.121C45.132 69.445 45.132 68.73 45.119 68.002L46.601 68.002C46.588 68.743 46.588 69.458 46.588 70.121L47.979 70.121C47.706 69.718 47.121 69.185 46.614 68.795L47.524 68.08C48.057 68.444 48.694 68.99 48.993 69.38L48.083 70.121L48.876 70.121L48.876 71.512L46.614 71.512C46.64 72.682 46.705 73.709 46.783 74.593C47.043 73.969 47.264 73.293 47.446 72.565ZM44.95 72.201L44.95 73.332L42.064 73.332L42.064 72.201L44.95 72.201ZM60.732 73.267L58.834 73.267C59.094 74.177 59.419 75.022 59.848 75.802C60.225 75.035 60.537 74.177 60.732 73.267ZM61.46 71.824L62.422 72.11C62.136 74.151 61.59 75.841 60.797 77.206C61.395 77.908 62.084 78.48 62.903 78.883C62.552 79.169 62.084 79.754 61.85 80.144C61.096 79.715 60.459 79.156 59.9 78.493C59.367 79.13 58.756 79.663 58.067 80.105C57.872 79.728 57.417 79.143 57.092 78.857C57.807 78.454 58.444 77.882 58.99 77.167C58.483 76.283 58.08 75.282 57.755 74.19C57.651 76.166 57.339 78.467 56.507 80.092C56.247 79.858 55.649 79.52 55.285 79.364L55.285 80.092L53.881 80.092L53.881 75.581L52.646 75.581C52.529 77.245 52.217 78.922 51.437 80.144C51.203 79.858 50.709 79.416 50.397 79.208C51.242 77.648 51.346 75.178 51.346 73.306L51.346 68.327L52.711 68.327L52.711 71.408L53.647 71.408L53.647 67.989L55.038 67.989L55.038 71.408L55.948 71.408L55.948 72.773L52.711 72.773L52.711 73.319C52.711 73.605 52.711 73.917 52.698 74.216L55.285 74.216L55.285 79.247C56.286 77.219 56.364 74.359 56.364 72.331L56.364 68.548L62.409 68.548L62.409 69.939L57.794 69.939L57.794 71.863L61.2 71.863L61.46 71.824Z" fill="#E81717"/>
</svg>
