<svg width="112" height="40" viewBox="0 0 112 40" fill="none" xmlns="http://www.w3.org/2000/svg">
<path d="M0.95 14.9101V14.9601H1H2.54557H2.59557V14.9101V8.77786H8.72786H8.77786V8.72786V7.18229V7.13229H8.72786H2.59557V2.59557H10.2734H10.3234V2.54557V1V0.95H10.2734H1H0.95V1V14.9101Z" fill="black" stroke="black" stroke-width="0.1"/>
<path d="M14.5882 14.9101V14.9601H14.6382H19.2749H19.3249V14.9101V13.3646V13.3146H19.2749H17.7793V2.59557H19.2749H19.3249V2.54557V1V0.95H19.2749H14.6382H14.5882V1V2.54557V2.59557H14.6382H16.1338V13.3146H14.6382H14.5882V13.3646V14.9101Z" fill="black" stroke="black" stroke-width="0.1"/>
<path d="M23.5892 14.9101V14.9601H23.6392H25.1847H25.2347V14.9101V8.77786H28.2259V10.2734V10.3234H28.2759H29.7714V13.3646V13.4146H29.8214H31.317V14.9101V14.9601H31.367H32.9126H32.9626V14.9101V13.3646V13.3146H32.9126H31.417V10.2734V10.2234H31.367H29.8714V8.77786H31.367H31.417V8.72786V7.23229H32.9126H32.9626V7.18229V2.54557V2.49557H32.9126H31.417V1V0.95H31.367H23.6392H23.5892V1V14.9101ZM31.317 7.13229H25.2347V2.59557H31.317V7.13229Z" fill="black" stroke="black" stroke-width="0.1"/>
<path d="M37.3016 14.9101V14.9601H37.3516H46.625H46.675V14.9101V13.3646V13.3146H46.625H38.9471V8.77786H45.0794H45.1294V8.72786V7.18229V7.13229H45.0794H38.9471V2.59557H46.625H46.675V2.54557V1V0.95H46.625H37.3516H37.3016V1V14.9101Z" fill="black" stroke="black" stroke-width="0.1"/>
<path d="M51.2366 5.63672V5.68672H51.2866H52.7822V11.819V11.869H52.8322H54.3278V14.9101V14.9601H54.3778H55.9233H55.9733V14.9101V11.869H57.4689H57.5189V11.819V7.23229H59.0145H59.0645V7.18229V4.14114H60.5101V7.18229V7.23229H60.5601H62.0556V11.819V11.869H62.1056H63.6012V14.9101V14.9601H63.6512H65.1968H65.2468V14.9101V11.869H66.7423H66.7923V11.819V5.68672H68.2879H68.3379V5.63672V1V0.95H68.2879H66.7423H66.6923V1V5.58672H65.1968H65.1468V5.63672V11.769H63.7012V7.18229V7.13229H63.6512H62.1556V4.09114V4.04114H62.1056H60.6101V1V0.95H60.5601H59.0145H58.9645V1V4.04114H57.4689H57.4189V4.09114V7.13229H55.9233H55.8733V7.18229V11.769H54.4278V5.63672V5.58672H54.3778H52.8822V1V0.95H52.8322H51.2866H51.2366V1V5.63672Z" fill="black" stroke="black" stroke-width="0.1"/>
<path d="M70.7222 11.769H70.6722V11.819V14.9101V14.9601H70.7222H72.2677H72.3177V14.9101V11.869H81.4912V14.9101V14.9601H81.5412H83.0868H83.1368V14.9101V11.819V11.769H83.0868H81.5912V7.18229V7.13229H81.5412H80.0456V4.09114V4.04114H79.9956H78.5V1V0.95H78.45H75.3589H75.3089V1V4.04114H73.8133H73.7633V4.09114V7.13229H72.2677H72.2177V7.18229V11.769H70.7222ZM79.9456 7.23229V10.2234H73.8633V7.23229H75.3589H75.4089V7.18229V4.14114H78.4V7.18229V7.23229H78.45H79.9456Z" fill="black" stroke="black" stroke-width="0.1"/>
<path d="M87.7723 14.9101V14.9601H87.8223H97.0957H97.1457V14.9101V13.3646V13.3146H97.0957H89.4178V1V0.95H89.3678H87.8223H87.7723V1V14.9101Z" fill="black" stroke="black" stroke-width="0.1"/>
<path d="M101.559 14.9101V14.9601H101.609H110.882H110.932V14.9101V13.3646V13.3146H110.882H103.204V1V0.95H103.154H101.609H101.559V1V14.9101Z" fill="black" stroke="black" stroke-width="0.1"/>
<path d="M37.263 37.8171V37.8671H37.313H38.8086V39.3627V39.4127H38.8586H45.0409H45.0909V39.3627V37.8671H46.5864H46.6364V37.8171V36.2716V36.2216H46.5864H45.0409H44.9909V36.2716V37.7671H38.9086V34.776H46.5864H46.6364V34.726V30.0893V30.0393H46.5864H45.0909V28.5437V28.4937H45.0409H38.8586H38.8086V28.5437V30.0393H37.313H37.263V30.0893V37.8171ZM44.9909 30.1393V33.1304H38.9086V30.1393H44.9909Z" fill="black" stroke="black" stroke-width="0.1"/>
<path d="M27.782 39.3627V39.4127H27.832H29.3548H29.4048V39.3627V30.2759H33.9232H33.9732V30.2259V28.7032V28.6532H33.9232H29.4048V25.7076H33.9232H33.9732V25.6576V24.1348V24.0848H33.9232H29.3548H29.3048V24.1348V25.6076H27.832H27.782V25.6576V39.3627Z" fill="black" stroke="black" stroke-width="0.1"/>
<path d="M14.5672 37.8171V37.8671H14.6172H16.1128V39.3627V39.4127H16.1628H20.7995H20.8495V39.3627V37.8671H22.295V39.3627V39.4127H22.345H23.8906H23.9406V39.3627V30.0893V30.0393H23.8906H22.395V28.5437V28.4937H22.345H16.1628H16.1128V28.5437V30.0893V30.1393H16.1628H22.295V31.5848H16.1628H16.1128V31.6348V33.1304H14.6172H14.5672V33.1804V37.8171ZM16.2128 37.7671V33.2304H22.295V36.2216H20.7995H20.7495V36.2716V37.7671H16.2128Z" fill="black" stroke="black" stroke-width="0.1"/>
<path d="M0.95 36.2716V36.3216H1H2.49557V37.8172V37.8672H2.54557H4.04114V39.3627V39.4127H4.09114H10.2734H10.3234V39.3627V37.8172V37.7672H10.2734H4.14114V36.2716V36.2216H4.09114H2.59557V28.5937H4.09114H4.14114V28.5437V27.0481H10.2734H10.3234V26.9981V25.4526V25.4026H10.2734H4.09114H4.04114V25.4526V26.9481H2.54557H2.49557V26.9981V28.4937H1H0.95V28.5437V36.2716Z" fill="black" stroke="black" stroke-width="0.1"/>
<path d="M54.3211 39.3627V39.4127H54.3711H55.7499H55.7999V39.3627V35.2763H57.0787V36.6051V36.6551H57.1287H58.5075H58.5575V36.6051V35.2763H59.8863H59.9363V35.2263V31.0898V31.0398H59.8863H58.5575V29.711V29.661H58.5075H57.1787V28.3822H58.5075H58.5575V28.3322V27.0034H62.594V33.7975H61.2652H61.2152V33.8475V36.5551H59.8863H59.8363V36.6051V37.9339H58.5075H58.4575V37.9839V39.3627V39.4127H58.5075H59.8863H59.9363V39.3627V38.0339H61.2652H61.3152V37.9839V36.6551H62.644H62.694V36.6051V33.8975H64.0228H64.0728V33.8475V31.1398H68.1092V37.9339H66.8304V36.6051V36.5551H66.7804H65.4016H65.3516V36.6051V37.9839V38.0339H65.4016H66.7304V39.3627V39.4127H66.7804H68.1592H68.2092V39.3627V38.0339H69.538H69.588V37.9839V29.711V29.661H69.538H64.0728V27.0034H70.9169H70.9669V26.9534V25.5746V25.5246H70.9169H66.8304V24.1958V24.1458H66.7804H65.4516V22.817V22.767H65.4016H64.0228H63.9728V22.817V24.1958V24.2458H64.0228H65.3516V25.5246H59.9363V22.817V22.767H59.8863H54.3711H54.3211V22.817V39.3627ZM58.4575 35.1763H57.1787V33.8475V33.7975H57.1287H55.7999V29.761H57.0787V31.0898V31.1398H57.1287H58.4575V35.1763ZM57.0787 28.2822H55.7999V24.2458H58.4575V26.9034H57.1287H57.0787V26.9534V28.2822Z" fill="#E81717" stroke="#E81717" stroke-width="0.1"/>
<path d="M75.0398 39.3627V39.4127H75.0898H77.8453H77.8953V39.3627V38.0339H79.223H79.273V37.9839V36.6551H80.6007H80.6507V36.6051V35.2763H81.9784H82.0284V35.2263V32.5186H83.3061V33.8475V33.8975H83.3561H84.6838V35.2263V35.2763H84.7338H86.0615V36.6051V36.6551H86.1115H87.4392V37.9839V38.0339H87.4892H88.8169V39.3627V39.4127H88.8669H90.2446H90.2946V39.3627V37.9839V37.9339H90.2446H88.9169V36.6051V36.5551H88.8669H87.5392V35.2263V35.1763H87.4892H86.1615V33.8475V33.7975H86.1115H84.7838V32.4686V32.4186H84.7338H83.4061V22.817V22.767H83.3561H81.9784H81.9284V22.817V32.4186H80.6007H80.5507V32.4686V35.1763H79.223H79.173V35.2263V36.5551H77.8453H77.7953V36.6051V37.9339H75.0898H75.0398V37.9839V39.3627ZM87.4892 29.761H87.5392V29.711V28.3822H88.8669H88.9169V28.3322V25.5746V25.5246H88.8669H87.4892H87.4392V25.5746V28.2822H86.1115H86.0615V28.3322V29.661H84.7338H84.6838V29.711V31.0898V31.1398H84.7338H86.1115H86.1615V31.0898V29.761H87.4892ZM77.8453 32.5186H77.8953V32.4686V31.1398H79.223H79.273V31.0898V26.9534V26.9034H79.223H77.8453H77.7953V26.9534V31.0398H76.4675H76.4175V31.0898V32.4686V32.5186H76.4675H77.8453Z" fill="#E81717" stroke="#E81717" stroke-width="0.1"/>
<path d="M94.3675 36.6051V36.6551H94.4175H97.1751H97.2251V36.6051V35.2763H101.262V39.3627V39.4127H101.312H110.963H111.013V39.3627V31.0898V31.0398H110.963H101.312H101.262V31.0898V33.7975H98.6039V28.3822H99.8827V29.711V29.761H99.9327H110.963H111.013V29.711V28.3322V28.2822H110.963H109.634V27.0034H110.963H111.013V26.9534V24.1958V24.1458H110.963H106.877V22.817V22.767H106.827H105.448H105.398V22.817V24.1458H99.9327H99.8827V24.1958V25.5746V25.6246H99.9327H101.262V26.9034H98.6039V22.817V22.767H98.5539H97.1751H97.1251V22.817V26.9034H94.4175H94.3675V26.9534V28.3322V28.3822H94.4175H97.1251V35.1763H94.4175H94.3675V35.2263V36.6051ZM108.156 26.9534V28.2822H106.877V25.6246H109.534V26.9034H108.206H108.156V26.9534ZM102.74 26.9034V25.6246H105.398V28.2822H104.119V26.9534V26.9034H104.069H102.74ZM102.64 27.0034V28.2822H101.362V27.0034H102.64ZM104.069 33.7975H104.019V33.8475V37.9339H102.74V32.5186H109.534V37.9339H108.256V33.8475V33.7975H108.206H104.069ZM105.498 37.9339V35.2763H106.777V37.9339H105.498Z" fill="#E81717" stroke="#E81717" stroke-width="0.1"/>
</svg>
