<svg width="24" height="24" viewBox="0 0 24 24" fill="none" xmlns="http://www.w3.org/2000/svg">
<mask id="mask0_3964_45347" style="mask-type:alpha" maskUnits="userSpaceOnUse" x="0" y="0" width="24" height="24">
<rect width="24" height="24" fill="#D9D9D9"/>
</mask>
<g mask="url(#mask0_3964_45347)">
<path d="M2.25 21C1.76417 21 1.351 20.8298 1.0105 20.4895C0.670167 20.149 0.5 19.7358 0.5 19.25V7.80775C0.5 7.32192 0.679833 6.89917 1.0395 6.5395C1.39917 6.17983 1.82192 6 2.30775 6H7.05C7.291 6 7.52275 6.04683 7.74525 6.1405C7.96758 6.234 8.16083 6.36283 8.325 6.527L9.798 8H11.5C11.7128 8 11.891 8.07183 12.0345 8.2155C12.1782 8.359 12.25 8.53717 12.25 8.75C12.25 8.96283 12.1782 9.141 12.0345 9.2845C11.891 9.42817 11.7128 9.5 11.5 9.5H9.1845L7.1845 7.5H2.30775C2.21792 7.5 2.14417 7.52883 2.0865 7.5865C2.02883 7.64417 2 7.71792 2 7.80775V19.5C2 19.4102 2.01767 19.3765 2.053 19.399C2.08817 19.4215 2.13458 19.4488 2.19225 19.4808L4.1385 12.9827C4.259 12.5942 4.48075 12.2821 4.80375 12.0462C5.12692 11.8102 5.48592 11.6923 5.88075 11.6923H18.7423C19.3551 11.6923 19.8413 11.9358 20.201 12.423C20.5605 12.9102 20.655 13.4416 20.4845 14.0173L18.7615 19.7578C18.6473 20.1333 18.4336 20.4342 18.1203 20.6605C17.8068 20.8868 17.459 21 17.077 21H2.25ZM3.7635 19.5H17.0385C17.109 19.5 17.1715 19.4808 17.226 19.4423C17.2805 19.4038 17.3173 19.3493 17.3365 19.2788L19.0405 13.5865C19.0725 13.484 19.0564 13.3927 18.9923 13.3125C18.9283 13.2323 18.8449 13.1923 18.7423 13.1923H5.88075C5.81025 13.1923 5.74775 13.2115 5.69325 13.25C5.63875 13.2885 5.60192 13.343 5.58275 13.4135L3.7635 19.5ZM3.7635 19.5L5.58275 13.4135C5.60192 13.343 5.61792 13.2885 5.63075 13.25L5.65 13.1923L5.61625 13.3125C5.59392 13.3927 5.56667 13.484 5.5345 13.5865L3.83075 19.2788C3.81158 19.3493 3.79558 19.4038 3.78275 19.4423L3.7635 19.5Z" fill="black"/>
<path d="M20.4923 8.43825L23.223 11.169C23.3613 11.3075 23.4322 11.4816 23.4355 11.6912C23.4387 11.9007 23.3678 12.078 23.223 12.223C23.078 12.3678 22.9023 12.4402 22.696 12.4402C22.4897 12.4402 22.314 12.3678 22.169 12.223L19.4382 9.49225C19.1139 9.72425 18.7533 9.90533 18.3565 10.0355C17.9598 10.1655 17.5461 10.2305 17.1152 10.2305C15.9677 10.2305 14.995 9.8315 14.197 9.0335C13.399 8.2355 13 7.26275 13 6.11525C13 4.96775 13.399 3.995 14.197 3.197C14.995 2.399 15.9677 2 17.1152 2C18.2627 2 19.2355 2.399 20.0335 3.197C20.8315 3.995 21.2305 4.96775 21.2305 6.11525C21.2305 6.56525 21.1622 6.98383 21.0257 7.371C20.8892 7.75817 20.7114 8.11392 20.4923 8.43825ZM17.1152 8.73075C17.8472 8.73075 18.4662 8.47783 18.972 7.972C19.4778 7.46617 19.7308 6.84725 19.7308 6.11525C19.7308 5.38325 19.4778 4.76433 18.972 4.2585C18.4662 3.75267 17.8472 3.49975 17.1152 3.49975C16.3832 3.49975 15.7643 3.75267 15.2585 4.2585C14.7527 4.76433 14.4998 5.38325 14.4998 6.11525C14.4998 6.84725 14.7527 7.46617 15.2585 7.972C15.7643 8.47783 16.3832 8.73075 17.1152 8.73075Z" fill="black"/>
</g>
</svg>
