<svg width="32" height="32" viewBox="0 0 32 32" fill="none" xmlns="http://www.w3.org/2000/svg">
<mask id="mask0_2603_213385" style="mask-type:alpha" maskUnits="userSpaceOnUse" x="0" y="0" width="32" height="32">
<rect width="32" height="32" fill="#D9D9D9"/>
</mask>
<g mask="url(#mask0_2603_213385)">
<path d="M16.0001 29.3333L14.6667 25.3333H5.33341C4.60008 25.3333 3.9723 25.0722 3.45008 24.55C2.92786 24.0277 2.66675 23.4 2.66675 22.6666V5.33329C2.66675 4.59996 2.92786 3.97218 3.45008 3.44996C3.9723 2.92774 4.60008 2.66663 5.33341 2.66663H13.3334L14.5001 6.66663H26.6667C27.4445 6.66663 28.0834 6.91663 28.5834 7.41663C29.0834 7.91663 29.3334 8.55551 29.3334 9.33329V26.6666C29.3334 27.4 29.0834 28.0277 28.5834 28.55C28.0834 29.0722 27.4445 29.3333 26.6667 29.3333H16.0001ZM9.53341 19.4666C11.0667 19.4666 12.3279 18.9722 13.3167 17.9833C14.3056 16.9944 14.8001 15.7111 14.8001 14.1333C14.8001 13.9555 14.7945 13.7944 14.7834 13.65C14.7723 13.5055 14.7445 13.3555 14.7001 13.2H9.43341V15.2666H12.4001C12.2223 15.8888 11.8834 16.3722 11.3834 16.7166C10.8834 17.0611 10.2779 17.2333 9.56675 17.2333C8.70008 17.2333 7.95564 16.9222 7.33341 16.3C6.71119 15.6777 6.40008 14.9111 6.40008 14C6.40008 13.0888 6.71119 12.3222 7.33341 11.7C7.95564 11.0777 8.70008 10.7666 9.56675 10.7666C9.96675 10.7666 10.3445 10.8388 10.7001 10.9833C11.0556 11.1277 11.3779 11.3444 11.6667 11.6333L13.3001 10.0666C12.8334 9.57774 12.2723 9.19996 11.6167 8.93329C10.9612 8.66663 10.2667 8.53329 9.53341 8.53329C8.04453 8.53329 6.7723 9.06107 5.71675 10.1166C4.66119 11.1722 4.13341 12.4666 4.13341 14C4.13341 15.5333 4.66119 16.8277 5.71675 17.8833C6.7723 18.9388 8.04453 19.4666 9.53341 19.4666ZM18.4667 20.1333L19.2001 19.4333C18.889 19.0555 18.6056 18.6888 18.3501 18.3333C18.0945 17.9777 17.8445 17.6 17.6001 17.2L18.4667 20.1333ZM20.1334 18.4333C20.7556 17.7 21.2279 17 21.5501 16.3333C21.8723 15.6666 22.089 15.1444 22.2001 14.7666H16.9001L17.3001 16.1666H18.6334C18.8112 16.5 19.0223 16.8611 19.2667 17.25C19.5112 17.6388 19.8001 18.0333 20.1334 18.4333ZM17.3334 28H26.6667C27.0667 28 27.389 27.8722 27.6334 27.6166C27.8779 27.3611 28.0001 27.0444 28.0001 26.6666V9.33329C28.0001 8.93329 27.8779 8.61107 27.6334 8.36663C27.389 8.12218 27.0667 7.99996 26.6667 7.99996H14.9001L16.4667 13.4H19.1001V12H20.4667V13.4H25.3334V14.7666H23.6334C23.4112 15.6111 23.0779 16.4333 22.6334 17.2333C22.189 18.0333 21.6667 18.7777 21.0667 19.4666L24.7001 23.0333L23.7334 24L20.1334 20.4L18.9334 21.6333L20.0001 25.3333L17.3334 28Z" fill="#E81717"/>
</g>
</svg>
