<svg width="36" height="36" viewBox="0 0 36 36" fill="none" xmlns="http://www.w3.org/2000/svg">
<mask id="mask0_3855_184606" style="mask-type:alpha" maskUnits="userSpaceOnUse" x="0" y="0" width="36" height="36">
<rect width="36" height="36" fill="#D9D9D9"/>
</mask>
<g mask="url(#mask0_3855_184606)">
<path d="M18 33L16.5 28.5H6C5.175 28.5 4.46875 28.2063 3.88125 27.6188C3.29375 27.0313 3 26.325 3 25.5V6C3 5.175 3.29375 4.46875 3.88125 3.88125C4.46875 3.29375 5.175 3 6 3H15L16.3125 7.5H30C30.875 7.5 31.5938 7.78125 32.1562 8.34375C32.7188 8.90625 33 9.625 33 10.5V30C33 30.825 32.7188 31.5313 32.1562 32.1188C31.5938 32.7063 30.875 33 30 33H18ZM10.725 21.9C12.45 21.9 13.8688 21.3438 14.9813 20.2313C16.0938 19.1188 16.65 17.675 16.65 15.9C16.65 15.7 16.6438 15.5188 16.6313 15.3563C16.6188 15.1938 16.5875 15.025 16.5375 14.85H10.6125V17.175H13.95C13.75 17.875 13.3687 18.4188 12.8062 18.8063C12.2437 19.1938 11.5625 19.3875 10.7625 19.3875C9.7875 19.3875 8.95 19.0375 8.25 18.3375C7.55 17.6375 7.2 16.775 7.2 15.75C7.2 14.725 7.55 13.8625 8.25 13.1625C8.95 12.4625 9.7875 12.1125 10.7625 12.1125C11.2125 12.1125 11.6375 12.1938 12.0375 12.3563C12.4375 12.5188 12.8 12.7625 13.125 13.0875L14.9625 11.325C14.4375 10.775 13.8063 10.35 13.0688 10.05C12.3313 9.75 11.55 9.6 10.725 9.6C9.05 9.6 7.61875 10.1938 6.43125 11.3813C5.24375 12.5688 4.65 14.025 4.65 15.75C4.65 17.475 5.24375 18.9313 6.43125 20.1188C7.61875 21.3063 9.05 21.9 10.725 21.9ZM20.775 22.65L21.6 21.8625C21.25 21.4375 20.9312 21.025 20.6437 20.625C20.3562 20.225 20.075 19.8 19.8 19.35L20.775 22.65ZM22.65 20.7375C23.35 19.9125 23.8813 19.125 24.2438 18.375C24.6063 17.625 24.85 17.0375 24.975 16.6125H19.0125L19.4625 18.1875H20.9625C21.1625 18.5625 21.4 18.9687 21.675 19.4062C21.95 19.8438 22.275 20.2875 22.65 20.7375ZM19.5 31.5H30C30.45 31.5 30.8125 31.3562 31.0875 31.0687C31.3625 30.7812 31.5 30.425 31.5 30V10.5C31.5 10.05 31.3625 9.6875 31.0875 9.4125C30.8125 9.1375 30.45 9 30 9H16.7625L18.525 15.075H21.4875V13.5H23.025V15.075H28.5V16.6125H26.5875C26.3375 17.5625 25.9625 18.4875 25.4625 19.3875C24.9625 20.2875 24.375 21.125 23.7 21.9L27.7875 25.9125L26.7 27L22.65 22.95L21.3 24.3375L22.5 28.5L19.5 31.5Z" fill="black"/>
</g>
</svg>
