<svg width="118" height="50" viewBox="0 0 118 50" fill="none" xmlns="http://www.w3.org/2000/svg">
<g clip-path="url(#clip0_3862_187103)">
<path d="M50.3263 30.5131C50.3263 36.0653 45.9829 40.1566 40.6524 40.1566C35.322 40.1566 30.9785 36.0653 30.9785 30.5131C30.9785 24.9218 35.322 20.8696 40.6524 20.8696C45.9829 20.8696 50.3263 24.9218 50.3263 30.5131ZM46.0916 30.5131C46.0916 27.0435 43.5742 24.6696 40.6524 24.6696C37.7307 24.6696 35.2133 27.0435 35.2133 30.5131C35.2133 33.9479 37.7307 36.3566 40.6524 36.3566C43.5742 36.3566 46.0916 33.9435 46.0916 30.5131Z" fill="#3AAED7"/>
<path d="M71.1955 30.5131C71.1955 36.0653 66.852 40.1566 61.5216 40.1566C56.1911 40.1566 51.8477 36.0653 51.8477 30.5131C51.8477 24.9262 56.1911 20.8696 61.5216 20.8696C66.852 20.8696 71.1955 24.9218 71.1955 30.5131ZM66.9607 30.5131C66.9607 27.0435 64.4433 24.6696 61.5216 24.6696C58.5998 24.6696 56.0824 27.0435 56.0824 30.5131C56.0824 33.9479 58.5998 36.3566 61.5216 36.3566C64.4433 36.3566 66.9607 33.9435 66.9607 30.5131Z" fill="#3AAED7"/>
<path d="M91.1959 21.4522L91.1959 38.7653C91.1959 45.887 86.9959 48.7957 82.0307 48.7957C77.3568 48.7957 74.5438 45.6696 73.4829 43.1131L77.1699 41.5783C77.8264 43.1479 79.4351 45.0001 82.0264 45.0001C85.2046 45.0001 87.1742 43.0392 87.1742 39.3479L87.1742 37.9609L87.0264 37.9609C86.0786 39.1305 84.2525 40.1522 81.9481 40.1522C77.1264 40.1522 72.709 35.9522 72.709 30.5479C72.709 25.1044 77.1264 20.8696 81.9481 20.8696C84.2481 20.8696 86.0742 21.8914 87.0264 23.0261L87.1742 23.0261L87.1742 21.4566L91.1959 21.4566L91.1959 21.4522ZM87.4742 30.5479C87.4742 27.1522 85.209 24.6696 82.3264 24.6696C79.4046 24.6696 76.9568 27.1522 76.9568 30.5479C76.9568 33.9088 79.4046 36.3566 82.3264 36.3566C85.209 36.3566 87.4742 33.9088 87.4742 30.5479Z" fill="#3AAED7"/>
<path d="M97.8257 11.3044L97.8257 39.5653L93.6953 39.5653L93.6953 11.3044L97.8257 11.3044Z" fill="#3AAED7"/>
<path d="M113.923 33.687L117.21 35.8783C116.149 37.4478 113.592 40.1522 109.175 40.1522C103.697 40.1522 99.6055 35.9174 99.6055 30.5087C99.6055 24.7739 103.732 20.8652 108.701 20.8652C113.705 20.8652 116.153 24.8478 116.953 27L117.392 28.0957L104.501 33.4348C105.488 35.3696 107.023 36.3565 109.175 36.3565C111.332 36.3565 112.827 35.2957 113.923 33.687ZM103.805 30.2174L112.423 26.6391C111.949 25.4348 110.523 24.5957 108.845 24.5957C106.692 24.5957 103.697 26.4957 103.805 30.2174Z" fill="#3AAED7"/>
<path d="M15.3452 28.0046L15.3452 23.9133L29.1321 23.9133C29.2669 24.6263 29.3365 25.4698 29.3365 26.3828C29.3365 29.4524 28.4973 33.2481 25.793 35.9524C23.1626 38.6915 19.8017 40.1524 15.3495 40.1524C7.09733 40.1524 0.158204 33.4307 0.158203 25.1785C0.158203 16.9263 7.09733 10.2046 15.3495 10.2046C19.9147 10.2046 23.1669 11.9959 25.6104 14.3307L22.7234 17.2176C20.9712 15.5742 18.5973 14.2959 15.3452 14.2959C9.31907 14.2959 4.60603 19.1524 4.60603 25.1785C4.60603 31.2046 9.31907 36.0611 15.3452 36.0611C19.2539 36.0611 21.4799 34.4915 22.906 33.0655C24.0626 31.9089 24.8234 30.2568 25.1234 28.0002L15.3452 28.0046Z" fill="#3AAED7"/>
</g>
<defs>
<clipPath id="clip0_3862_187103">
<rect width="118" height="50" fill="white"/>
</clipPath>
</defs>
</svg>
