<svg width="24" height="24" viewBox="0 0 24 24" fill="none" xmlns="http://www.w3.org/2000/svg">
<g clip-path="url(#clip0_2633_70256)">
<rect width="24" height="24" rx="4" fill="#E81717"/>
<path d="M12.006 0.181824C7.07127 0.181824 5.62804 0.186915 5.34751 0.210187C4.33481 0.294369 3.70465 0.453824 3.01812 0.795642C2.48905 1.05837 2.07179 1.36291 1.65998 1.78982C0.910006 2.56837 0.455474 3.52619 0.290934 4.66473C0.210936 5.21746 0.187664 5.33019 0.182937 8.15346C0.181119 9.09455 0.182937 10.3331 0.182937 11.9944C0.182937 16.9253 0.188391 18.3671 0.212027 18.6471C0.293843 19.6326 0.448383 20.2526 0.775646 20.9307C1.40108 22.2289 2.59559 23.2035 4.00282 23.5671C4.49008 23.6926 5.02824 23.7616 5.71913 23.7944C6.01185 23.8071 8.9954 23.8162 11.9808 23.8162C14.9661 23.8162 17.9515 23.8126 18.2369 23.798C19.0369 23.7604 19.5014 23.698 20.0151 23.5653C21.4314 23.1998 22.6041 22.2398 23.2422 20.9235C23.5631 20.2616 23.7259 19.618 23.7995 18.684C23.8155 18.4804 23.8222 15.2336 23.8222 11.9913C23.8222 8.74837 23.8149 5.50764 23.7989 5.30401C23.7244 4.35492 23.5617 3.71673 23.2304 3.04219C22.9586 2.49001 22.6568 2.07764 22.2186 1.65601C21.4367 0.909097 20.4803 0.454551 19.3407 0.290187C18.7886 0.210369 18.6786 0.186733 15.8532 0.181824H12.006Z" fill="#E81717"/>
<path d="M12.006 0.181824C7.07127 0.181824 5.62804 0.186915 5.34751 0.210187C4.33481 0.294369 3.70465 0.453824 3.01812 0.795642C2.48905 1.05837 2.07179 1.36291 1.65998 1.78982C0.910006 2.56837 0.455474 3.52619 0.290934 4.66473C0.210936 5.21746 0.187664 5.33019 0.182937 8.15346C0.181119 9.09455 0.182937 10.3331 0.182937 11.9944C0.182937 16.9253 0.188391 18.3671 0.212027 18.6471C0.293843 19.6326 0.448383 20.2526 0.775646 20.9307C1.40108 22.2289 2.59559 23.2035 4.00282 23.5671C4.49008 23.6926 5.02824 23.7616 5.71913 23.7944C6.01185 23.8071 8.9954 23.8162 11.9808 23.8162C14.9661 23.8162 17.9515 23.8126 18.2369 23.798C19.0369 23.7604 19.5014 23.698 20.0151 23.5653C21.4314 23.1998 22.6041 22.2398 23.2422 20.9235C23.5631 20.2616 23.7259 19.618 23.7995 18.684C23.8155 18.4804 23.8222 15.2336 23.8222 11.9913C23.8222 8.74837 23.8149 5.50764 23.7989 5.30401C23.7244 4.35492 23.5617 3.71673 23.2304 3.04219C22.9586 2.49001 22.6568 2.07764 22.2186 1.65601C21.4367 0.909097 20.4803 0.454551 19.3407 0.290187C18.7886 0.210369 18.6786 0.186733 15.8532 0.181824H12.006Z" fill="#E81717"/>
<path d="M12.0002 3.27272C9.63009 3.27272 9.33264 3.28308 8.40176 3.32545C7.4727 3.36799 6.83853 3.51508 6.28364 3.7309C5.70966 3.95381 5.22277 4.25199 4.73769 4.73727C4.25225 5.22236 3.95408 5.70927 3.73045 6.28308C3.51409 6.83817 3.36682 7.47254 3.325 8.40127C3.28337 9.33218 3.27246 9.62981 3.27246 12C3.27246 14.3702 3.28301 14.6667 3.32519 15.5976C3.36791 16.5267 3.515 17.1609 3.73063 17.7158C3.95371 18.2898 4.25189 18.7767 4.73714 19.2618C5.22204 19.7473 5.70893 20.0462 6.28255 20.2691C6.83781 20.4849 7.47215 20.632 8.40103 20.6745C9.33191 20.7169 9.62918 20.7273 11.9991 20.7273C14.3694 20.7273 14.6659 20.7169 15.5968 20.6745C16.5259 20.632 17.1608 20.4849 17.716 20.2691C18.2898 20.0462 18.776 19.7473 19.2609 19.2618C19.7463 18.7767 20.0445 18.2898 20.2681 17.716C20.4827 17.1609 20.6299 16.5265 20.6736 15.5978C20.7154 14.6669 20.7263 14.3702 20.7263 12C20.7263 9.62981 20.7154 9.33236 20.6736 8.40145C20.6299 7.47236 20.4827 6.83817 20.2681 6.28327C20.0445 5.70927 19.7463 5.22236 19.2609 4.73727C18.7754 4.25181 18.29 3.95363 17.7155 3.7309C17.1591 3.51508 16.5246 3.36799 15.5955 3.32545C14.6647 3.28308 14.3683 3.27272 11.9975 3.27272H12.0002ZM11.2173 4.84545C11.4497 4.84508 11.7089 4.84545 12.0002 4.84545C14.3303 4.84545 14.6065 4.85381 15.5266 4.89563C16.3775 4.93454 16.8393 5.07672 17.1469 5.19617C17.5542 5.35436 17.8446 5.54345 18.1498 5.8489C18.4553 6.15436 18.6444 6.44527 18.8029 6.85254C18.9223 7.15981 19.0647 7.62163 19.1034 8.47254C19.1453 9.39254 19.1543 9.6689 19.1543 11.998C19.1543 14.3271 19.1453 14.6034 19.1034 15.5234C19.0645 16.3744 18.9223 16.8362 18.8029 17.1434C18.6447 17.5507 18.4553 17.8407 18.1498 18.146C17.8444 18.4514 17.5544 18.6405 17.1469 18.7987C16.8397 18.9187 16.3775 19.0605 15.5266 19.0994C14.6067 19.1413 14.3303 19.1504 12.0002 19.1504C9.6699 19.1504 9.39373 19.1413 8.47376 19.0994C7.62287 19.0602 7.16107 18.918 6.85326 18.7985C6.446 18.6404 6.1551 18.4513 5.84966 18.1458C5.54421 17.8404 5.35513 17.5502 5.19658 17.1427C5.07713 16.8354 4.93477 16.3736 4.89605 15.5227C4.85423 14.6027 4.84587 14.3264 4.84587 11.9958C4.84587 9.66527 4.85423 9.39036 4.89605 8.47036C4.93496 7.61945 5.07713 7.15763 5.19658 6.84999C5.35476 6.44272 5.54421 6.15181 5.84966 5.84636C6.1551 5.5409 6.446 5.35181 6.85326 5.19327C7.16089 5.07327 7.62287 4.93145 8.47376 4.89236C9.27882 4.85599 9.59082 4.84508 11.2173 4.84327V4.84545ZM16.6586 6.29454C16.0804 6.29454 15.6114 6.76308 15.6114 7.34145C15.6114 7.91963 16.0804 8.38872 16.6586 8.38872C17.2368 8.38872 17.7058 7.91963 17.7058 7.34145C17.7058 6.76327 17.2368 6.29417 16.6586 6.29417V6.29454ZM12.0002 7.51817C9.52518 7.51817 7.51851 9.5249 7.51851 12C7.51851 14.4751 9.52518 16.4809 12.0002 16.4809C14.4752 16.4809 16.4812 14.4751 16.4812 12C16.4812 9.5249 14.4752 7.51817 12.0002 7.51817ZM12.0002 9.0909C13.6067 9.0909 14.9092 10.3933 14.9092 12C14.9092 13.6065 13.6067 14.9091 12.0002 14.9091C10.3935 14.9091 9.09119 13.6065 9.09119 12C9.09119 10.3933 10.3935 9.0909 12.0002 9.0909Z" fill="white"/>
</g>
<defs>
<clipPath id="clip0_2633_70256">
<rect width="24" height="24" rx="4" fill="white"/>
</clipPath>
</defs>
</svg>
