<svg width="24" height="24" viewBox="0 0 24 24" fill="none" xmlns="http://www.w3.org/2000/svg">
<rect x="3.9" y="3.9" width="14.76" height="14.76" rx="7.38" stroke="black" stroke-width="1.8"/>
<path d="M11.4279 6.60004C11.8711 6.60004 12.2275 6.96468 12.2174 7.40776L12.1134 11.9639C12.1049 12.3373 11.7998 12.6355 11.4263 12.6355V12.6355C11.0527 12.6355 10.7475 12.337 10.7392 11.9634L10.6384 7.40721C10.6286 6.96434 10.9849 6.60004 11.4279 6.60004V6.60004ZM11.4261 15.24C11.1729 15.24 10.9558 15.151 10.7749 14.9729C10.5969 14.7948 10.5078 14.5778 10.5078 14.3218C10.5078 14.0713 10.5969 13.8571 10.7749 13.679C10.9558 13.5009 11.1729 13.4119 11.4261 13.4119C11.6737 13.4119 11.888 13.5009 12.0689 13.679C12.2525 13.8571 12.3443 14.0713 12.3443 14.3218C12.3443 14.4915 12.3012 14.6459 12.2149 14.7851C12.1315 14.9242 12.0202 15.0355 11.881 15.119C11.7447 15.1997 11.593 15.24 11.4261 15.24Z" fill="black"/>
<path d="M16.6797 16.68L20.9997 21" stroke="black" stroke-width="1.8" stroke-linecap="round"/>
</svg>
