<svg width="36" height="36" viewBox="0 0 36 36" fill="none" xmlns="http://www.w3.org/2000/svg">
<rect x="0.5" y="0.5" width="35" height="35" rx="4" stroke="black"/>
<mask id="mask0_3855_184602" style="mask-type:alpha" maskUnits="userSpaceOnUse" x="2" y="2" width="32" height="32">
<rect x="2" y="2" width="32" height="32" fill="#D9D9D9"/>
</mask>
<g mask="url(#mask0_3855_184602)">
<path d="M18 19.405L11.236 26.1694C11.0513 26.3538 10.8192 26.4482 10.5397 26.4527C10.2603 26.4569 10.024 26.3625 9.83068 26.1694C9.63757 25.976 9.54102 25.7418 9.54102 25.4667C9.54102 25.1916 9.63757 24.9574 9.83068 24.764L16.595 18L9.83068 11.236C9.64624 11.0514 9.55179 10.8192 9.54735 10.5397C9.54313 10.2603 9.63757 10.024 9.83068 9.83068C10.024 9.63757 10.2582 9.54102 10.5333 9.54102C10.8085 9.54102 11.0427 9.63757 11.236 9.83068L18 16.595L24.764 9.83068C24.9487 9.64624 25.1808 9.55179 25.4603 9.54735C25.7397 9.54313 25.976 9.63757 26.1693 9.83068C26.3625 10.024 26.459 10.2582 26.459 10.5333C26.459 10.8085 26.3625 11.0427 26.1693 11.236L19.405 18L26.1693 24.764C26.3538 24.9487 26.4482 25.1808 26.4527 25.4604C26.4569 25.7397 26.3625 25.976 26.1693 26.1694C25.976 26.3625 25.7418 26.459 25.4667 26.459C25.1916 26.459 24.9573 26.3625 24.764 26.1694L18 19.405Z" fill="black"/>
</g>
</svg>
