<svg width="24" height="24" viewBox="0 0 24 24" fill="none" xmlns="http://www.w3.org/2000/svg">
<mask id="mask0_2621_55040" style="mask-type:alpha" maskUnits="userSpaceOnUse" x="0" y="0" width="24" height="24">
<rect width="24" height="24" fill="#D9D9D9"/>
</mask>
<g mask="url(#mask0_2621_55040)">
<path d="M9.51906 15.6152C7.81139 15.6152 6.36522 15.023 5.18056 13.8385C3.99606 12.6538 3.40381 11.2077 3.40381 9.49998C3.40381 7.79232 3.99606 6.34615 5.18056 5.16149C6.36522 3.97699 7.81139 3.38474 9.51906 3.38474C11.2267 3.38474 12.6729 3.97699 13.8576 5.16149C15.0421 6.34615 15.6343 7.79232 15.6343 9.49998C15.6343 10.2142 15.5145 10.8962 15.2748 11.5462C15.035 12.1962 14.7151 12.7616 14.3151 13.2422L20.0691 18.9962C20.2076 19.1346 20.2784 19.3086 20.2816 19.5182C20.2847 19.7279 20.2139 19.9052 20.0691 20.05C19.9242 20.1948 19.7486 20.2672 19.5421 20.2672C19.3357 20.2672 19.1601 20.1948 19.0153 20.05L13.2613 14.296C12.7613 14.7088 12.1863 15.0319 11.5363 15.2652C10.8863 15.4986 10.2139 15.6152 9.51906 15.6152ZM9.51906 14.1155C10.8076 14.1155 11.8989 13.6683 12.7931 12.774C13.6874 11.8798 14.1346 10.7885 14.1346 9.49998C14.1346 8.21148 13.6874 7.12015 12.7931 6.22598C11.8989 5.33165 10.8076 4.88448 9.51906 4.88448C8.23056 4.88448 7.13922 5.33165 6.24506 6.22598C5.35072 7.12015 4.90356 8.21148 4.90356 9.49998C4.90356 10.7885 5.35072 11.8798 6.24506 12.774C7.13922 13.6683 8.23056 14.1155 9.51906 14.1155Z" fill="black"/>
</g>
</svg>
